<?xml version="1.0" encoding="UTF-8"?>
<svg width="220px" height="54px" viewBox="0 0 220 54" version="1.1" xmlns="http://www.w3.org/2000/svg" xmlns:xlink="http://www.w3.org/1999/xlink">
    <!-- Generator: Sketch 53 (72520) - https://sketchapp.com -->
    <title>hash</title>
    <desc>Created with Sketch.</desc>
    <g id="hash" stroke="none" stroke-width="1" fill="none" fill-rule="evenodd">
        <path d="M-77,0 L-5.42105263,72 L-77,0 Z M-72.5263158,0 L-0.947368421,72 L-72.5263158,0 Z M-68.0526316,0 L3.52631579,72 L-68.0526316,0 Z M-63.5789474,0 L8,72 L-63.5789474,0 Z M-59.1052632,0 L12.4736842,72 L-59.1052632,0 Z M-54.6315789,0 L16.9473684,72 L-54.6315789,0 Z M-50.1578947,0 L21.4210526,72 L-50.1578947,0 Z M-45.6842105,0 L25.8947368,72 L-45.6842105,0 Z M-41.2105263,0 L30.3684211,72 L-41.2105263,0 Z M-36.7368421,0 L34.8421053,72 L-36.7368421,0 Z M-32.2631579,0 L39.3157895,72 L-32.2631579,0 Z M-27.7894737,0 L43.7894737,72 L-27.7894737,0 Z M-23.3157895,0 L48.2631579,72 L-23.3157895,0 Z M-18.8421053,0 L52.7368421,72 L-18.8421053,0 Z M-14.3684211,0 L57.2105263,72 L-14.3684211,0 Z M-9.89473684,0 L61.6842105,72 L-9.89473684,0 Z M-5.42105263,0 L66.1578947,72 L-5.42105263,0 Z M-0.947368421,0 L70.6315789,72 L-0.947368421,0 Z M3.52631579,0 L75.1052632,72 L3.52631579,0 Z M8,0 L79.5789474,72 L8,0 Z M12.4736842,0 L84.0526316,72 L12.4736842,0 Z M16.9473684,0 L88.5263158,72 L16.9473684,0 Z M21.4210526,0 L93,72 L21.4210526,0 Z M25.8947368,0 L97.4736842,72 L25.8947368,0 Z M30.3684211,0 L101.947368,72 L30.3684211,0 Z M34.8421053,0 L106.421053,72 L34.8421053,0 Z M39.3157895,0 L110.894737,72 L39.3157895,0 Z M43.7894737,0 L115.368421,72 L43.7894737,0 Z M48.2631579,0 L119.842105,72 L48.2631579,0 Z M52.7368421,0 L124.315789,72 L52.7368421,0 Z M57.2105263,0 L128.789474,72 L57.2105263,0 Z M61.6842105,0 L133.263158,72 L61.6842105,0 Z M66.1578947,0 L137.736842,72 L66.1578947,0 Z M70.6315789,0 L142.210526,72 L70.6315789,0 Z M75.1052632,0 L146.684211,72 L75.1052632,0 Z M79.5789474,0 L151.157895,72 L79.5789474,0 Z M84.0526316,0 L155.631579,72 L84.0526316,0 Z M88.5263158,0 L160.105263,72 L88.5263158,0 Z M93,0 L164.578947,72 L93,0 Z M97.4736842,0 L169.052632,72 L97.4736842,0 Z M101.947368,0 L173.526316,72 L101.947368,0 Z M106.421053,0 L178,72 L106.421053,0 Z M110.894737,0 L182.473684,72 L110.894737,0 Z M115.368421,0 L186.947368,72 L115.368421,0 Z M119.842105,0 L191.421053,72 L119.842105,0 Z M124.315789,0 L195.894737,72 L124.315789,0 Z M128.789474,0 L200.368421,72 L128.789474,0 Z M133.263158,0 L204.842105,72 L133.263158,0 Z M137.736842,0 L209.315789,72 L137.736842,0 Z M142.210526,0 L213.789474,72 L142.210526,0 Z M146.684211,0 L218.263158,72 L146.684211,0 Z M151.157895,0 L222.736842,72 L151.157895,0 Z M155.631579,0 L227.210526,72 L155.631579,0 Z M160.105263,0 L231.684211,72 L160.105263,0 Z M164.578947,0 L236.157895,72 L164.578947,0 Z M169.052632,0 L240.631579,72 L169.052632,0 Z M173.526316,0 L245.105263,72 L173.526316,0 Z M178,0 L249.578947,72 L178,0 Z M182.473684,0 L254.052632,72 L182.473684,0 Z M186.947368,0 L258.526316,72 L186.947368,0 Z M191.421053,0 L263,72 L191.421053,0 Z M195.894737,0 L267.473684,72 L195.894737,0 Z M200.368421,0 L271.947368,72 L200.368421,0 Z M204.842105,0 L276.421053,72 L204.842105,0 Z M209.315789,0 L280.894737,72 L209.315789,0 Z M213.789474,0 L285.368421,72 L213.789474,0 Z M218.263158,0 L289.842105,72 L218.263158,0 Z M222.736842,0 L294.315789,72 L222.736842,0 Z M227.210526,0 L298.789474,72 L227.210526,0 Z M231.684211,0 L303.263158,72 L231.684211,0 Z M236.157895,0 L307.736842,72 L236.157895,0 Z M240.631579,0 L312.210526,72 L240.631579,0 Z M245.105263,0 L316.684211,72 L245.105263,0 Z M249.578947,0 L321.157895,72 L249.578947,0 Z M254.052632,0 L325.631579,72 L254.052632,0 Z M258.526316,0 L330.105263,72 L258.526316,0 Z M263,0 L334.578947,72 L263,0 Z M267.473684,0 L339.052632,72 L267.473684,0 Z M271.947368,0 L343.526316,72 L271.947368,0 Z M276.421053,0 L348,72 L276.421053,0 Z" id="Combined-Shape" stroke="#DDDDDD" fill-rule="nonzero"></path>
    </g>
</svg>