<svg width="20" height="20" viewBox="0 0 20 20" fill="none" xmlns="http://www.w3.org/2000/svg">
    <mask id="mask0_1_9" style="mask-type:alpha" maskUnits="userSpaceOnUse" x="0" y="0" width="20"
        height="20">
        <rect width="20" height="20" fill="#D9D9D9" />
    </mask>
    <g mask="url(#mask0_1_9)">
        <path
            d="M3.5 16C3.08333 16 2.72917 15.853 2.4375 15.5591C2.14583 15.2652 2 14.9119 2 14.4992V5.4941C2 5.08137 2.14688 4.72917 2.44063 4.4375C2.73438 4.14583 3.0875 4 3.5 4H16.5C16.9125 4 17.2656 4.14749 17.5594 4.44248C17.8531 4.73745 18 5.09205 18 5.50627V8.5H16.5V7.27083L10 11L3.5 7.27083V14.5H13.5V16H3.5ZM10 9.22917L16.5 5.5H3.5L10 9.22917ZM15.5 16C15.3583 16 15.2396 15.9521 15.1438 15.8562C15.0479 15.7604 15 15.6417 15 15.5V12.5C15 12.3611 15.0486 12.2396 15.1458 12.1354C15.2431 12.0313 15.3611 11.9861 15.5 12H16V11C16 10.5875 16.1473 10.2344 16.4419 9.94063C16.7365 9.64688 17.0907 9.5 17.5044 9.5C17.9181 9.5 18.2708 9.64688 18.5625 9.94063C18.8542 10.2344 19 10.5875 19 11V12H19.5C19.6417 12 19.7604 12.0479 19.8563 12.1438C19.9521 12.2396 20 12.3583 20 12.5V15.5C20 15.6417 19.9521 15.7604 19.8563 15.8562C19.7604 15.9521 19.6417 16 19.5 16H15.5ZM16.75 12H18.25V11C18.25 10.7875 18.1785 10.6094 18.0356 10.4656C17.8927 10.3219 17.7156 10.25 17.5044 10.25C17.2931 10.25 17.1146 10.3219 16.9688 10.4656C16.8229 10.6094 16.75 10.7875 16.75 11V12Z"
            fill="#004987" />
    </g>
</svg>