<svg width="74" height="91" viewBox="0 0 74 91" fill="none" xmlns="http://www.w3.org/2000/svg">
  <path d="M30.1875 59.125H43.8125L41.2011 44.4781C42.7149 43.7212 43.9071 42.6236 44.7776 41.1854C45.6481 39.7472 46.0833 38.1576 46.0833 36.4166C46.0833 33.9187 45.1939 31.7804 43.4151 30.0015C41.6363 28.2227 39.4979 27.3333 37 27.3333C34.5021 27.3333 32.3637 28.2227 30.5849 30.0015C28.8061 31.7804 27.9167 33.9187 27.9167 36.4166C27.9167 38.1576 28.3519 39.7472 29.2224 41.1854C30.0929 42.6236 31.2851 43.7212 32.799 44.4781L30.1875 59.125ZM37 90.9167C26.4785 88.2673 17.7925 82.2307 10.9422 72.8068C4.09185 63.3828 0.666674 52.918 0.666674 41.4125V13.7083L37 0.083313L73.3333 13.7083V41.4125C73.3333 52.918 69.9082 63.3828 63.0578 72.8068C56.2075 82.2307 47.5215 88.2673 37 90.9167ZM37 81.3792C44.8722 78.8812 51.382 73.8854 56.5292 66.3917C61.6764 58.8979 64.25 50.5715 64.25 41.4125V19.9531L37 9.73435L9.75001 19.9531V41.4125C9.75001 50.5715 12.3236 58.8979 17.4708 66.3917C22.6181 73.8854 29.1278 78.8812 37 81.3792Z" fill="#004987"/>
</svg>
