<?xml version="1.0" encoding="UTF-8"?>
<svg width="25px" height="30px" viewBox="0 0 25 30" version="1.1" xmlns="http://www.w3.org/2000/svg" xmlns:xlink="http://www.w3.org/1999/xlink">
    <!-- Generator: Sketch 53.2 (72643) - https://sketchapp.com -->
    <title>Virtru icons/Document Icon/Model Copy 37</title>
    <desc>Created with Sketch.</desc>
    <defs>
        <path d="M15,0 L21.3232233,0 C23.2562199,0 25,1.74378007 25,3.6767767 L25,10 L15,0 Z" id="path-1"></path>
        <filter x="-20.0%" y="-30.0%" width="140.0%" height="140.0%" filterUnits="objectBoundingBox" id="filter-2">
            <feOffset dx="0" dy="-1" in="SourceAlpha" result="shadowOffsetOuter1"></feOffset>
            <feGaussianBlur stdDeviation="0.5" in="shadowOffsetOuter1" result="shadowBlurOuter1"></feGaussianBlur>
            <feColorMatrix values="0 0 0 0 0   0 0 0 0 0   0 0 0 0 0  0 0 0 0.0967221467 0" type="matrix" in="shadowBlurOuter1"></feColorMatrix>
        </filter>
        <path d="M4.421875,15.9765625 L4.8203125,15.9765625 C5.1927102,15.9765625 5.47135324,15.9029955 5.65625,15.7558594 C5.84114676,15.6087232 5.93359375,15.3945327 5.93359375,15.1132812 C5.93359375,14.8294257 5.85612057,14.6197923 5.70117188,14.484375 C5.54622318,14.3489577 5.30338707,14.28125 4.97265625,14.28125 L4.421875,14.28125 L4.421875,15.9765625 Z M7.15625,15.0703125 C7.15625,15.6848989 6.96419463,16.1549463 6.58007812,16.4804688 C6.19596162,16.8059912 5.64974312,16.96875 4.94140625,16.96875 L4.421875,16.96875 L4.421875,19 L3.2109375,19 L3.2109375,13.2890625 L5.03515625,13.2890625 C5.72786805,13.2890625 6.25455549,13.4381496 6.61523438,13.7363281 C6.97591326,14.0345067 7.15625,14.4791637 7.15625,15.0703125 Z M9.4453125,15.9765625 L9.84375,15.9765625 C10.2161477,15.9765625 10.4947907,15.9029955 10.6796875,15.7558594 C10.8645843,15.6087232 10.9570312,15.3945327 10.9570312,15.1132812 C10.9570312,14.8294257 10.8795581,14.6197923 10.7246094,14.484375 C10.5696607,14.3489577 10.3268246,14.28125 9.99609375,14.28125 L9.4453125,14.28125 L9.4453125,15.9765625 Z M12.1796875,15.0703125 C12.1796875,15.6848989 11.9876321,16.1549463 11.6035156,16.4804688 C11.2193991,16.8059912 10.6731806,16.96875 9.96484375,16.96875 L9.4453125,16.96875 L9.4453125,19 L8.234375,19 L8.234375,13.2890625 L10.0585938,13.2890625 C10.7513055,13.2890625 11.277993,13.4381496 11.6386719,13.7363281 C11.9993508,14.0345067 12.1796875,14.4791637 12.1796875,15.0703125 Z M15.4609375,19 L14.25,19 L14.25,14.296875 L12.6992188,14.296875 L12.6992188,13.2890625 L17.0117188,13.2890625 L17.0117188,14.296875 L15.4609375,14.296875 L15.4609375,19 Z M22.5078125,19 L21.125,19 L19.796875,16.8398438 L18.46875,19 L17.171875,19 L19.0664062,16.0546875 L17.2929688,13.2890625 L18.6289062,13.2890625 L19.859375,15.34375 L21.0664062,13.2890625 L22.3710938,13.2890625 L20.578125,16.1210938 L22.5078125,19 Z" id="path-3"></path>
    </defs>
    <g id="File-Icons" stroke="none" stroke-width="1" fill="none" fill-rule="evenodd">
        <g id="Individual-Chips" transform="translate(-137.000000, -267.000000)">
            <g id="col-1-flattened" transform="translate(137.000000, 57.000000)">
                <g id="Virtru-icons/Document-Icon/Model-Copy-24" transform="translate(0.000000, 210.000000)">
                    <path d="M14.7928932,0.5 L3.5,0.5 C1.84314575,0.5 0.5,1.84314575 0.5,3.5 L0.5,26.5 C0.5,28.1568542 1.84314575,29.5 3.5,29.5 L21.5,29.5 C23.1568542,29.5 24.5,28.1568542 24.5,26.5 L24.5,10.2071068 L14.7928932,0.5 Z" id="page" stroke="#F59023" fill="#FFFFFF"></path>
                    <g id="curl" transform="translate(20.000000, 5.000000) scale(-1, -1) translate(-20.000000, -5.000000) ">
                        <use fill="black" fill-opacity="1" filter="url(#filter-2)" xlink:href="#path-1"></use>
                        <use fill="#B86104" fill-rule="evenodd" xlink:href="#path-1"></use>
                    </g>
                    <g id="File-Icon-Contents">
                        <g id="Text-Color">
                            <mask id="mask-4" fill="white">
                                <use xlink:href="#path-3"></use>
                            </mask>
                            <use id="PPTX" fill="#FFFFFF" fill-rule="nonzero" xlink:href="#path-3"></use>
                            <rect fill="#F59023" mask="url(#mask-4)" x="0" y="0" width="25" height="30"></rect>
                        </g>
                    </g>
                </g>
            </g>
        </g>
    </g>
</svg>