<?xml version="1.0" encoding="UTF-8"?>
<svg width="25px" height="30px" viewBox="0 0 25 30" version="1.1" xmlns="http://www.w3.org/2000/svg" xmlns:xlink="http://www.w3.org/1999/xlink">
    <!-- Generator: Sketch 53.2 (72643) - https://sketchapp.com -->
    <title>Virtru icons/Document Icon/Model Copy 38</title>
    <desc>Created with Sketch.</desc>
    <defs>
        <path d="M15,0 L21.3232233,0 C23.2562199,0 25,1.74378007 25,3.6767767 L25,10 L15,0 Z" id="path-1"></path>
        <filter x="-20.0%" y="-30.0%" width="140.0%" height="140.0%" filterUnits="objectBoundingBox" id="filter-2">
            <feOffset dx="0" dy="-1" in="SourceAlpha" result="shadowOffsetOuter1"></feOffset>
            <feGaussianBlur stdDeviation="0.5" in="shadowOffsetOuter1" result="shadowBlurOuter1"></feGaussianBlur>
            <feColorMatrix values="0 0 0 0 0   0 0 0 0 0   0 0 0 0 0  0 0 0 0.0967221467 0" type="matrix" in="shadowBlurOuter1"></feColorMatrix>
        </filter>
        <path d="M8.03710938,19 L6.65429688,19 L5.32617188,16.8398438 L3.99804688,19 L2.70117188,19 L4.59570312,16.0546875 L2.82226562,13.2890625 L4.15820312,13.2890625 L5.38867188,15.34375 L6.59570312,13.2890625 L7.90039062,13.2890625 L6.10742188,16.1210938 L8.03710938,19 Z M8.75585938,19 L8.75585938,13.2890625 L9.96679688,13.2890625 L9.96679688,18 L12.2832031,18 L12.2832031,19 L8.75585938,19 Z M16.6464844,17.4140625 C16.6464844,17.9296901 16.4609394,18.335936 16.0898438,18.6328125 C15.7187481,18.929689 15.2024773,19.078125 14.5410156,19.078125 C13.9316376,19.078125 13.3925805,18.9635428 12.9238281,18.734375 L12.9238281,17.609375 C13.3092467,17.7812509 13.6354153,17.9023434 13.9023438,17.9726562 C14.1692722,18.0429691 14.4134104,18.078125 14.6347656,18.078125 C14.900392,18.078125 15.104166,18.0273443 15.2460938,17.9257812 C15.3880215,17.8242182 15.4589844,17.6731781 15.4589844,17.4726562 C15.4589844,17.3606765 15.4277347,17.2610681 15.3652344,17.1738281 C15.3027341,17.0865881 15.2109381,17.0026046 15.0898438,16.921875 C14.9687494,16.8411454 14.7220071,16.7122405 14.3496094,16.5351562 C14.0006493,16.3710929 13.7389332,16.2135424 13.5644531,16.0625 C13.3899731,15.9114576 13.2506516,15.7356781 13.1464844,15.5351562 C13.0423172,15.3346344 12.9902344,15.1002618 12.9902344,14.8320312 C12.9902344,14.3268204 13.1614566,13.9296889 13.5039062,13.640625 C13.8463559,13.3515611 14.3196584,13.2070312 14.9238281,13.2070312 C15.2207046,13.2070312 15.5039049,13.2421871 15.7734375,13.3125 C16.0429701,13.3828129 16.3248683,13.4817702 16.6191406,13.609375 L16.2285156,14.5507812 C15.9238266,14.4257806 15.671876,14.3385419 15.4726562,14.2890625 C15.2734365,14.2395831 15.0774749,14.2148438 14.8847656,14.2148438 C14.6555978,14.2148438 14.4798183,14.2682286 14.3574219,14.375 C14.2350254,14.4817714 14.1738281,14.6210929 14.1738281,14.7929688 C14.1738281,14.8997401 14.1985675,14.9928381 14.2480469,15.0722656 C14.2975263,15.1516931 14.3763015,15.2285153 14.484375,15.3027344 C14.5924485,15.3769535 14.8483053,15.5104157 15.2519531,15.703125 C15.78581,15.9583346 16.1516917,16.2141914 16.3496094,16.4707031 C16.547527,16.7272148 16.6464844,17.0416648 16.6464844,17.4140625 Z M22.2988281,19 L20.9160156,19 L19.5878906,16.8398438 L18.2597656,19 L16.9628906,19 L18.8574219,16.0546875 L17.0839844,13.2890625 L18.4199219,13.2890625 L19.6503906,15.34375 L20.8574219,13.2890625 L22.1621094,13.2890625 L20.3691406,16.1210938 L22.2988281,19 Z" id="path-3"></path>
    </defs>
    <g id="File-Icons" stroke="none" stroke-width="1" fill="none" fill-rule="evenodd">
        <g id="Individual-Chips" transform="translate(-137.000000, -197.000000)">
            <g id="col-1-flattened" transform="translate(137.000000, 57.000000)">
                <g id="Virtru-icons/Document-Icon/Model-Copy-25" transform="translate(0.000000, 140.000000)">
                    <path d="M14.7928932,0.5 L3.5,0.5 C1.84314575,0.5 0.5,1.84314575 0.5,3.5 L0.5,26.5 C0.5,28.1568542 1.84314575,29.5 3.5,29.5 L21.5,29.5 C23.1568542,29.5 24.5,28.1568542 24.5,26.5 L24.5,10.2071068 L14.7928932,0.5 Z" id="page" stroke="#75B849" fill="#FFFFFF"></path>
                    <g id="curl" transform="translate(20.000000, 5.000000) scale(-1, -1) translate(-20.000000, -5.000000) ">
                        <use fill="black" fill-opacity="1" filter="url(#filter-2)" xlink:href="#path-1"></use>
                        <use fill="#3F7A17" fill-rule="evenodd" xlink:href="#path-1"></use>
                    </g>
                    <g id="File-Icon-Contents">
                        <g id="Text-Color">
                            <mask id="mask-4" fill="white">
                                <use xlink:href="#path-3"></use>
                            </mask>
                            <use id="XLSX" fill="#FFFFFF" fill-rule="nonzero" xlink:href="#path-3"></use>
                            <rect fill="#75B849" mask="url(#mask-4)" x="0" y="0" width="25" height="30"></rect>
                        </g>
                    </g>
                </g>
            </g>
        </g>
    </g>
</svg>