<?xml version="1.0" encoding="UTF-8"?>
<svg width="25px" height="30px" viewBox="0 0 25 30" version="1.1" xmlns="http://www.w3.org/2000/svg" xmlns:xlink="http://www.w3.org/1999/xlink">
    <!-- Generator: Sketch 53.2 (72643) - https://sketchapp.com -->
    <title>Virtru icons/Document Icon/Model Copy 33</title>
    <desc>Created with Sketch.</desc>
    <defs>
        <linearGradient x1="23.965115%" y1="100%" x2="84.7222222%" y2="0%" id="linearGradient-1">
            <stop stop-color="#969DA9" offset="0%"></stop>
            <stop stop-color="#646A78" offset="100%"></stop>
        </linearGradient>
        <path d="M15,0 L21.3232233,0 C23.2562199,0 25,1.74378007 25,3.6767767 L25,10 L15,0 Z" id="path-2"></path>
        <filter x="-20.0%" y="-30.0%" width="140.0%" height="140.0%" filterUnits="objectBoundingBox" id="filter-3">
            <feOffset dx="0" dy="-1" in="SourceAlpha" result="shadowOffsetOuter1"></feOffset>
            <feGaussianBlur stdDeviation="0.5" in="shadowOffsetOuter1" result="shadowBlurOuter1"></feGaussianBlur>
            <feColorMatrix values="0 0 0 0 0   0 0 0 0 0   0 0 0 0 0  0 0 0 0.0967221467 0" type="matrix" in="shadowBlurOuter1"></feColorMatrix>
        </filter>
    </defs>
    <g id="File-Icons" stroke="none" stroke-width="1" fill="none" fill-rule="evenodd">
        <g id="Individual-Chips" transform="translate(-376.000000, -57.000000)">
            <g id="col-2-flattened" transform="translate(376.000000, 57.000000)">
                <g id="Virtru-icons/Document-Icon/Model-Copy-20">
                    <path d="M15,0 L25,10 L25,26.5 C25,28.4329966 23.4329966,30 21.5,30 L3.5,30 C1.56700338,30 0,28.4329966 0,26.5 L0,3.5 C0,1.56700338 1.56700338,0 3.5,0 L15,0 Z" id="page" fill="url(#linearGradient-1)"></path>
                    <g id="curl" transform="translate(20.000000, 5.000000) scale(-1, -1) translate(-20.000000, -5.000000) ">
                        <use fill="black" fill-opacity="1" filter="url(#filter-3)" xlink:href="#path-2"></use>
                        <use fill="#393C44" fill-rule="evenodd" xlink:href="#path-2"></use>
                    </g>
                    <g id="File-Icon-Contents" transform="translate(5.000000, 7.000000)" fill="#FFFFFF" fill-rule="nonzero">
                        <g id="Virtru-icons/24/Encrypted-solid-24" transform="translate(0.700000, 0.000000)">
                            <path d="M3.67998211,4.54065302 L3.67998211,3.96467029 C3.67998211,2.0400112 4.96011757,0.560069469 6.80728341,0.560069469 C8.65271315,0.560069469 9.91863304,2.03683618 9.91863304,3.96467029 L9.91863304,4.54065302 L10.7321586,4.54065302 C11.5375738,4.54065302 12.1904919,5.19357109 12.1904919,5.99898635 L12.1904919,11.5927083 C12.1904919,12.3981236 11.5375738,13.0510416 10.7321586,13.0510416 L2.87895256,13.0510416 C2.0735373,13.0510416 1.42061922,12.3981236 1.42061922,11.5927083 L1.42061922,5.99898635 C1.42061922,5.19357109 2.0735373,4.54065302 2.87895256,4.54065302 L3.67998211,4.54065302 Z M4.81424137,4.54065302 L8.78437378,4.54065302 L8.78437378,3.96467029 C8.78437378,2.6278158 7.98416625,1.69432873 6.80728341,1.69432873 C5.62605132,1.69432873 4.81424137,2.63284771 4.81424137,3.96467029 L4.81424137,4.54065302 Z M7.68788525,7.2958383 C7.68788525,8.44251972 6.94392555,9.01525856 6.38747088,9.28327096 L6.38747088,9.25763133 L6.38747088,6.89764156 L5.39007637,6.89764156 L5.39007637,10.5715722 L5.98521965,10.4562541 C6.91919423,10.2752118 8.68534097,9.38179697 8.68534097,7.2958383 C8.68534097,7.02511748 8.46208572,6.80555556 8.18661311,6.80555556 C7.91120171,6.80555556 7.68788525,7.02511748 7.68788525,7.2958383 Z" id="icon"></path>
                        </g>
                        <path d="M3.19628906,17.7324219 L3.49511719,17.7324219 C3.77441546,17.7324219 3.98339774,17.6772466 4.12207031,17.5668945 C4.26074288,17.4565424 4.33007812,17.2958995 4.33007812,17.0849609 C4.33007812,16.8720692 4.27197324,16.7148443 4.15576172,16.6132812 C4.0395502,16.5117182 3.85742312,16.4609375 3.609375,16.4609375 L3.19628906,16.4609375 L3.19628906,17.7324219 Z M5.24707031,17.0527344 C5.24707031,17.5136742 5.10302878,17.8662097 4.81494141,18.1103516 C4.52685403,18.3544934 4.11719016,18.4765625 3.5859375,18.4765625 L3.19628906,18.4765625 L3.19628906,20 L2.28808594,20 L2.28808594,15.7167969 L3.65625,15.7167969 C4.17578385,15.7167969 4.57079943,15.8286122 4.84130859,16.0522461 C5.11181776,16.27588 5.24707031,16.6093728 5.24707031,17.0527344 Z M9.609375,17.8173828 C9.609375,18.5224645 9.40869341,19.0624981 9.00732422,19.4375 C8.60595502,19.8125019 8.02637098,20 7.26855469,20 L6.05566406,20 L6.05566406,15.7167969 L7.40039062,15.7167969 C8.09961287,15.7167969 8.64257619,15.9013653 9.02929688,16.2705078 C9.41601756,16.6396503 9.609375,17.1552701 9.609375,17.8173828 Z M8.66601562,17.8408203 C8.66601562,16.9208938 8.25976969,16.4609375 7.44726562,16.4609375 L6.96386719,16.4609375 L6.96386719,19.25 L7.35351562,19.25 C8.22852,19.25 8.66601562,18.7802781 8.66601562,17.8408203 Z M11.390625,20 L10.4970703,20 L10.4970703,15.7167969 L12.9521484,15.7167969 L12.9521484,16.4609375 L11.390625,16.4609375 L11.390625,17.5654297 L12.84375,17.5654297 L12.84375,18.3066406 L11.390625,18.3066406 L11.390625,20 Z" id="PDF"></path>
                    </g>
                </g>
            </g>
        </g>
    </g>
</svg>