<?xml version="1.0" encoding="UTF-8"?>
<svg width="25px" height="30px" viewBox="0 0 25 30" version="1.1" xmlns="http://www.w3.org/2000/svg" xmlns:xlink="http://www.w3.org/1999/xlink">
    <!-- Generator: Sketch 53.2 (72643) - https://sketchapp.com -->
    <title>Page with curl small Copy 29</title>
    <desc>Created with Sketch.</desc>
    <defs>
        <path d="M15,0 L21.3232233,0 C23.2562199,0 25,1.74378007 25,3.6767767 L25,10 L15,0 Z" id="path-1"></path>
        <filter x="-20.0%" y="-30.0%" width="140.0%" height="140.0%" filterUnits="objectBoundingBox" id="filter-2">
            <feOffset dx="0" dy="-1" in="SourceAlpha" result="shadowOffsetOuter1"></feOffset>
            <feGaussianBlur stdDeviation="0.5" in="shadowOffsetOuter1" result="shadowBlurOuter1"></feGaussianBlur>
            <feColorMatrix values="0 0 0 0 0   0 0 0 0 0   0 0 0 0 0  0 0 0 0.0967221467 0" type="matrix" in="shadowBlurOuter1"></feColorMatrix>
        </filter>
    </defs>
    <g id="File-Icons" stroke="none" stroke-width="1" fill="none" fill-rule="evenodd">
        <g id="Icons" transform="translate(-386.000000, -434.000000)">
            <g id="Page-with-curl-small-Copy-29" transform="translate(386.000000, 434.000000)">
                <path d="M14.7928932,0.5 L3.5,0.5 C1.84314575,0.5 0.5,1.84314575 0.5,3.5 L0.5,26.5 C0.5,28.1568542 1.84314575,29.5 3.5,29.5 L21.5,29.5 C23.1568542,29.5 24.5,28.1568542 24.5,26.5 L24.5,10.2071068 L14.7928932,0.5 Z" id="page" stroke="#30BEC3" fill="#FFFFFF"></path>
                <g id="curl" transform="translate(20.000000, 5.000000) scale(-1, -1) translate(-20.000000, -5.000000) ">
                    <use fill="black" fill-opacity="1" filter="url(#filter-2)" xlink:href="#path-1"></use>
                    <use fill="#118387" fill-rule="evenodd" xlink:href="#path-1"></use>
                </g>
                <path d="M8.890625,17.4140625 C8.890625,17.9296901 8.70507998,18.335936 8.33398438,18.6328125 C7.96288877,18.929689 7.44661789,19.078125 6.78515625,19.078125 C6.1757782,19.078125 5.63672109,18.9635428 5.16796875,18.734375 L5.16796875,17.609375 C5.55338734,17.7812509 5.87955596,17.9023434 6.14648438,17.9726562 C6.41341279,18.0429691 6.65755098,18.078125 6.87890625,18.078125 C7.14453258,18.078125 7.34830658,18.0273443 7.49023438,17.9257812 C7.63216217,17.8242182 7.703125,17.6731781 7.703125,17.4726562 C7.703125,17.3606765 7.67187531,17.2610681 7.609375,17.1738281 C7.54687469,17.0865881 7.45507873,17.0026046 7.33398438,16.921875 C7.21289002,16.8411454 6.9661477,16.7122405 6.59375,16.5351562 C6.24478992,16.3710929 5.98307379,16.2135424 5.80859375,16.0625 C5.63411371,15.9114576 5.49479219,15.7356781 5.390625,15.5351562 C5.28645781,15.3346344 5.234375,15.1002618 5.234375,14.8320312 C5.234375,14.3268204 5.40559725,13.9296889 5.74804688,13.640625 C6.0904965,13.3515611 6.56379906,13.2070312 7.16796875,13.2070312 C7.46484523,13.2070312 7.74804553,13.2421871 8.01757812,13.3125 C8.28711072,13.3828129 8.56900895,13.4817702 8.86328125,13.609375 L8.47265625,14.5507812 C8.16796723,14.4257806 7.91601662,14.3385419 7.71679688,14.2890625 C7.51757713,14.2395831 7.32161555,14.2148438 7.12890625,14.2148438 C6.89973844,14.2148438 6.72395895,14.2682286 6.6015625,14.375 C6.47916605,14.4817714 6.41796875,14.6210929 6.41796875,14.7929688 C6.41796875,14.8997401 6.44270809,14.9928381 6.4921875,15.0722656 C6.54166691,15.1516931 6.62044217,15.2285153 6.72851562,15.3027344 C6.83658908,15.3769535 7.0924459,15.5104157 7.49609375,15.703125 C8.02995059,15.9583346 8.39583234,16.2141914 8.59375,16.4707031 C8.79166766,16.7272148 8.890625,17.0416648 8.890625,17.4140625 Z M13.1835938,13.2890625 L14.40625,13.2890625 L12.4648438,19 L11.1445312,19 L9.20703125,13.2890625 L10.4296875,13.2890625 L11.5039062,16.6875 C11.5638024,16.8880218 11.6256507,17.1217435 11.6894531,17.3886719 C11.7532555,17.6556003 11.7929687,17.8411453 11.8085938,17.9453125 C11.8372397,17.705728 11.934895,17.2864613 12.1015625,16.6875 L13.1835938,13.2890625 Z M17.2929688,15.7929688 L19.5585938,15.7929688 L19.5585938,18.7539062 C19.1914044,18.8736985 18.8457047,18.9576821 18.5214844,19.0058594 C18.197264,19.0540367 17.8658871,19.078125 17.5273438,19.078125 C16.6653603,19.078125 16.0071637,18.8248723 15.5527344,18.3183594 C15.098305,17.8118464 14.8710938,17.0846402 14.8710938,16.1367188 C14.8710938,15.2148391 15.134763,14.4960963 15.6621094,13.9804688 C16.1894558,13.4648412 16.9205682,13.2070312 17.8554688,13.2070312 C18.4414092,13.2070312 19.0065077,13.3242176 19.5507812,13.5585938 L19.1484375,14.5273438 C18.7317688,14.3190094 18.2981793,14.2148438 17.8476562,14.2148438 C17.3242161,14.2148438 16.9049495,14.3906232 16.5898438,14.7421875 C16.274738,15.0937518 16.1171875,15.5664033 16.1171875,16.1601562 C16.1171875,16.779951 16.2441394,17.2532536 16.4980469,17.5800781 C16.7519544,17.9069027 17.1210913,18.0703125 17.6054688,18.0703125 C17.8580742,18.0703125 18.114582,18.0442711 18.375,17.9921875 L18.375,16.8007812 L17.2929688,16.8007812 L17.2929688,15.7929688 Z" id="SVG" fill="#30BEC3" fill-rule="nonzero"></path>
            </g>
            <g id="Slices" transform="translate(186.000000, 384.000000)"></g>
        </g>
    </g>
</svg>