<?xml version="1.0" encoding="UTF-8"?>
<svg width="25px" height="30px" viewBox="0 0 25 30" version="1.1" xmlns="http://www.w3.org/2000/svg" xmlns:xlink="http://www.w3.org/1999/xlink">
    <!-- Generator: Sketch 53.2 (72643) - https://sketchapp.com -->
    <title>Virtru icons/Document Icon/Model Copy 31</title>
    <desc>Created with Sketch.</desc>
    <defs>
        <linearGradient x1="23.965115%" y1="100%" x2="84.7222222%" y2="0%" id="linearGradient-1">
            <stop stop-color="#969DA9" offset="0%"></stop>
            <stop stop-color="#646A78" offset="100%"></stop>
        </linearGradient>
        <path d="M15,0 L21.3232233,0 C23.2562199,0 25,1.74378007 25,3.6767767 L25,10 L15,0 Z" id="path-2"></path>
        <filter x="-20.0%" y="-30.0%" width="140.0%" height="140.0%" filterUnits="objectBoundingBox" id="filter-3">
            <feOffset dx="0" dy="-1" in="SourceAlpha" result="shadowOffsetOuter1"></feOffset>
            <feGaussianBlur stdDeviation="0.5" in="shadowOffsetOuter1" result="shadowBlurOuter1"></feGaussianBlur>
            <feColorMatrix values="0 0 0 0 0   0 0 0 0 0   0 0 0 0 0  0 0 0 0.0967221467 0" type="matrix" in="shadowBlurOuter1"></feColorMatrix>
        </filter>
    </defs>
    <g id="File-Icons" stroke="none" stroke-width="1" fill="none" fill-rule="evenodd">
        <g id="Individual-Chips" transform="translate(-376.000000, -197.000000)">
            <g id="col-2-flattened" transform="translate(376.000000, 57.000000)">
                <g id="Virtru-icons/Document-Icon/Model-Copy-18" transform="translate(0.000000, 140.000000)">
                    <path d="M15,0 L25,10 L25,26.5 C25,28.4329966 23.4329966,30 21.5,30 L3.5,30 C1.56700338,30 0,28.4329966 0,26.5 L0,3.5 C0,1.56700338 1.56700338,0 3.5,0 L15,0 Z" id="page" fill="url(#linearGradient-1)"></path>
                    <g id="curl" transform="translate(20.000000, 5.000000) scale(-1, -1) translate(-20.000000, -5.000000) ">
                        <use fill="black" fill-opacity="1" filter="url(#filter-3)" xlink:href="#path-2"></use>
                        <use fill="#393C44" fill-rule="evenodd" xlink:href="#path-2"></use>
                    </g>
                    <g id="File-Icon-Contents" transform="translate(5.000000, 7.000000)" fill="#FFFFFF" fill-rule="nonzero">
                        <g id="Virtru-icons/24/Encrypted-solid-24" transform="translate(0.700000, 0.000000)">
                            <path d="M3.67998211,4.54065302 L3.67998211,3.96467029 C3.67998211,2.0400112 4.96011757,0.560069469 6.80728341,0.560069469 C8.65271315,0.560069469 9.91863304,2.03683618 9.91863304,3.96467029 L9.91863304,4.54065302 L10.7321586,4.54065302 C11.5375738,4.54065302 12.1904919,5.19357109 12.1904919,5.99898635 L12.1904919,11.5927083 C12.1904919,12.3981236 11.5375738,13.0510416 10.7321586,13.0510416 L2.87895256,13.0510416 C2.0735373,13.0510416 1.42061922,12.3981236 1.42061922,11.5927083 L1.42061922,5.99898635 C1.42061922,5.19357109 2.0735373,4.54065302 2.87895256,4.54065302 L3.67998211,4.54065302 Z M4.81424137,4.54065302 L8.78437378,4.54065302 L8.78437378,3.96467029 C8.78437378,2.6278158 7.98416625,1.69432873 6.80728341,1.69432873 C5.62605132,1.69432873 4.81424137,2.63284771 4.81424137,3.96467029 L4.81424137,4.54065302 Z M7.68788525,7.2958383 C7.68788525,8.44251972 6.94392555,9.01525856 6.38747088,9.28327096 L6.38747088,9.25763133 L6.38747088,6.89764156 L5.39007637,6.89764156 L5.39007637,10.5715722 L5.98521965,10.4562541 C6.91919423,10.2752118 8.68534097,9.38179697 8.68534097,7.2958383 C8.68534097,7.02511748 8.46208572,6.80555556 8.18661311,6.80555556 C7.91120171,6.80555556 7.68788525,7.02511748 7.68788525,7.2958383 Z" id="icon"></path>
                        </g>
                        <path d="M4.15283203,20 L3.11572266,20 L2.11962891,18.3798828 L1.12353516,20 L0.150878906,20 L1.57177734,17.7910156 L0.241699219,15.7167969 L1.24365234,15.7167969 L2.16650391,17.2578125 L3.07177734,15.7167969 L4.05029297,15.7167969 L2.70556641,17.8408203 L4.15283203,20 Z M4.69189453,20 L4.69189453,15.7167969 L5.60009766,15.7167969 L5.60009766,19.25 L7.33740234,19.25 L7.33740234,20 L4.69189453,20 Z M10.6098633,18.8105469 C10.6098633,19.1972676 10.4707045,19.501952 10.1923828,19.7246094 C9.91406111,19.9472667 9.52685795,20.0585938 9.03076172,20.0585938 C8.57372818,20.0585938 8.16943535,19.9726571 7.81787109,19.8007812 L7.81787109,18.9570312 C8.10693504,19.0859381 8.3515615,19.1767575 8.55175781,19.2294922 C8.75195413,19.2822268 8.93505776,19.3085938 9.10107422,19.3085938 C9.30029396,19.3085938 9.45312447,19.2705082 9.55957031,19.1943359 C9.66601616,19.1181637 9.71923828,19.0048836 9.71923828,18.8544922 C9.71923828,18.7705074 9.69580102,18.6958011 9.64892578,18.6303711 C9.60205055,18.5649411 9.53320358,18.5019534 9.44238281,18.4414062 C9.35156205,18.3808591 9.1665053,18.2841804 8.88720703,18.1513672 C8.62548697,18.0283197 8.42919987,17.9101568 8.29833984,17.796875 C8.16747981,17.6835932 8.06298867,17.5517586 7.98486328,17.4013672 C7.90673789,17.2509758 7.86767578,17.0751963 7.86767578,16.8740234 C7.86767578,16.4951153 7.99609247,16.1972667 8.25292969,15.9804688 C8.50976691,15.7636708 8.86474383,15.6552734 9.31787109,15.6552734 C9.54052846,15.6552734 9.75292868,15.6816404 9.95507812,15.734375 C10.1572276,15.7871096 10.3686512,15.8613276 10.5893555,15.9570312 L10.2963867,16.6630859 C10.06787,16.5693355 9.878907,16.5039064 9.72949219,16.4667969 C9.58007738,16.4296873 9.43310619,16.4111328 9.28857422,16.4111328 C9.11669836,16.4111328 8.98486374,16.4511715 8.89306641,16.53125 C8.80126907,16.6113285 8.75537109,16.7158197 8.75537109,16.8447266 C8.75537109,16.9248051 8.7739256,16.9946286 8.81103516,17.0541992 C8.84814472,17.1137698 8.90722616,17.1713864 8.98828125,17.2270508 C9.06933634,17.2827151 9.26122896,17.3828118 9.56396484,17.5273438 C9.96435747,17.718751 10.2387688,17.9106436 10.387207,18.1030273 C10.5356453,18.2954111 10.6098633,18.5312486 10.6098633,18.8105469 Z M14.8491211,20 L13.8120117,20 L12.815918,18.3798828 L11.8198242,20 L10.847168,20 L12.2680664,17.7910156 L10.9379883,15.7167969 L11.9399414,15.7167969 L12.862793,17.2578125 L13.7680664,15.7167969 L14.746582,15.7167969 L13.4018555,17.8408203 L14.8491211,20 Z" id="XLSX"></path>
                    </g>
                </g>
            </g>
        </g>
    </g>
</svg>