<?xml version="1.0" encoding="UTF-8"?>
<svg width="25px" height="30px" viewBox="0 0 25 30" version="1.1" xmlns="http://www.w3.org/2000/svg" xmlns:xlink="http://www.w3.org/1999/xlink">
    <!-- Generator: Sketch 53.2 (72643) - https://sketchapp.com -->
    <title>Virtru icons/Document Icon/Model Copy 32</title>
    <desc>Created with Sketch.</desc>
    <defs>
        <linearGradient x1="23.965115%" y1="100%" x2="84.7222222%" y2="0%" id="linearGradient-1">
            <stop stop-color="#969DA9" offset="0%"></stop>
            <stop stop-color="#646A78" offset="100%"></stop>
        </linearGradient>
        <path d="M15,0 L21.3232233,0 C23.2562199,0 25,1.74378007 25,3.6767767 L25,10 L15,0 Z" id="path-2"></path>
        <filter x="-20.0%" y="-30.0%" width="140.0%" height="140.0%" filterUnits="objectBoundingBox" id="filter-3">
            <feOffset dx="0" dy="-1" in="SourceAlpha" result="shadowOffsetOuter1"></feOffset>
            <feGaussianBlur stdDeviation="0.5" in="shadowOffsetOuter1" result="shadowBlurOuter1"></feGaussianBlur>
            <feColorMatrix values="0 0 0 0 0   0 0 0 0 0   0 0 0 0 0  0 0 0 0.0967221467 0" type="matrix" in="shadowBlurOuter1"></feColorMatrix>
        </filter>
    </defs>
    <g id="File-Icons" stroke="none" stroke-width="1" fill="none" fill-rule="evenodd">
        <g id="Individual-Chips" transform="translate(-376.000000, -127.000000)">
            <g id="col-2-flattened" transform="translate(376.000000, 57.000000)">
                <g id="Virtru-icons/Document-Icon/Model-Copy-19" transform="translate(0.000000, 70.000000)">
                    <path d="M15,0 L25,10 L25,26.5 C25,28.4329966 23.4329966,30 21.5,30 L3.5,30 C1.56700338,30 0,28.4329966 0,26.5 L0,3.5 C0,1.56700338 1.56700338,0 3.5,0 L15,0 Z" id="page" fill="url(#linearGradient-1)"></path>
                    <g id="curl" transform="translate(20.000000, 5.000000) scale(-1, -1) translate(-20.000000, -5.000000) ">
                        <use fill="black" fill-opacity="1" filter="url(#filter-3)" xlink:href="#path-2"></use>
                        <use fill="#393C44" fill-rule="evenodd" xlink:href="#path-2"></use>
                    </g>
                    <g id="File-Icon-Contents" transform="translate(3.000000, 7.000000)" fill="#FFFFFF" fill-rule="nonzero">
                        <g id="Virtru-icons/24/Encrypted-solid-24" transform="translate(2.700000, 0.000000)">
                            <path d="M3.67998211,4.54065302 L3.67998211,3.96467029 C3.67998211,2.0400112 4.96011757,0.560069469 6.80728341,0.560069469 C8.65271315,0.560069469 9.91863304,2.03683618 9.91863304,3.96467029 L9.91863304,4.54065302 L10.7321586,4.54065302 C11.5375738,4.54065302 12.1904919,5.19357109 12.1904919,5.99898635 L12.1904919,11.5927083 C12.1904919,12.3981236 11.5375738,13.0510416 10.7321586,13.0510416 L2.87895256,13.0510416 C2.0735373,13.0510416 1.42061922,12.3981236 1.42061922,11.5927083 L1.42061922,5.99898635 C1.42061922,5.19357109 2.0735373,4.54065302 2.87895256,4.54065302 L3.67998211,4.54065302 Z M4.81424137,4.54065302 L8.78437378,4.54065302 L8.78437378,3.96467029 C8.78437378,2.6278158 7.98416625,1.69432873 6.80728341,1.69432873 C5.62605132,1.69432873 4.81424137,2.63284771 4.81424137,3.96467029 L4.81424137,4.54065302 Z M7.68788525,7.2958383 C7.68788525,8.44251972 6.94392555,9.01525856 6.38747088,9.28327096 L6.38747088,9.25763133 L6.38747088,6.89764156 L5.39007637,6.89764156 L5.39007637,10.5715722 L5.98521965,10.4562541 C6.91919423,10.2752118 8.68534097,9.38179697 8.68534097,7.2958383 C8.68534097,7.02511748 8.46208572,6.80555556 8.18661311,6.80555556 C7.91120171,6.80555556 7.68788525,7.02511748 7.68788525,7.2958383 Z" id="icon"></path>
                        </g>
                        <path d="M5.07177734,17.8173828 C5.07177734,18.5224645 4.87109576,19.0624981 4.46972656,19.4375 C4.06835737,19.8125019 3.48877332,20 2.73095703,20 L1.51806641,20 L1.51806641,15.7167969 L2.86279297,15.7167969 C3.56201521,15.7167969 4.10497854,15.9013653 4.49169922,16.2705078 C4.8784199,16.6396503 5.07177734,17.1552701 5.07177734,17.8173828 Z M4.12841797,17.8408203 C4.12841797,16.9208938 3.72217203,16.4609375 2.90966797,16.4609375 L2.42626953,16.4609375 L2.42626953,19.25 L2.81591797,19.25 C3.69092234,19.25 4.12841797,18.7802781 4.12841797,17.8408203 Z M9.84716797,17.8525391 C9.84716797,18.561527 9.67138848,19.1064434 9.31982422,19.4873047 C8.96825996,19.868166 8.46435875,20.0585938 7.80810547,20.0585938 C7.15185219,20.0585938 6.64795098,19.868166 6.29638672,19.4873047 C5.94482246,19.1064434 5.76904297,18.5595739 5.76904297,17.8466797 C5.76904297,17.1337855 5.94531074,16.5893573 6.29785156,16.2133789 C6.65039239,15.8374005 7.15575843,15.6494141 7.81396484,15.6494141 C8.47217126,15.6494141 8.97558419,15.8388653 9.32421875,16.2177734 C9.67285331,16.5966816 9.84716797,17.141598 9.84716797,17.8525391 Z M6.72119141,17.8525391 C6.72119141,18.3310571 6.81201081,18.691405 6.99365234,18.9335938 C7.17529388,19.1757825 7.44677554,19.296875 7.80810547,19.296875 C8.53271847,19.296875 8.89501953,18.8154345 8.89501953,17.8525391 C8.89501953,16.8876905 8.53467157,16.4052734 7.81396484,16.4052734 C7.45263491,16.4052734 7.1801767,16.5268543 6.99658203,16.7700195 C6.81298736,17.0131848 6.72119141,17.374021 6.72119141,17.8525391 Z M12.5541992,16.4111328 C12.2124006,16.4111328 11.9477548,16.5395495 11.7602539,16.7963867 C11.572753,17.0532239 11.4790039,17.4111305 11.4790039,17.8701172 C11.4790039,18.8252001 11.8373988,19.3027344 12.5541992,19.3027344 C12.854982,19.3027344 13.2192361,19.2275398 13.6469727,19.0771484 L13.6469727,19.8388672 C13.2954084,19.9853523 12.9028342,20.0585938 12.4692383,20.0585938 C11.8461883,20.0585938 11.3696306,19.8696308 11.0395508,19.4916992 C10.709471,19.1137676 10.5444336,18.5712926 10.5444336,17.8642578 C10.5444336,17.4189431 10.6254875,17.0288103 10.7875977,16.6938477 C10.9497078,16.358885 11.1826157,16.1020517 11.4863281,15.9233398 C11.7900406,15.744628 12.1459941,15.6552734 12.5541992,15.6552734 C12.9702169,15.6552734 13.3881815,15.7558584 13.8081055,15.9570312 L13.5151367,16.6953125 C13.3549797,16.6191402 13.1938485,16.5527347 13.0317383,16.4960938 C12.8696281,16.4394528 12.71045,16.4111328 12.5541992,16.4111328 Z M18.0209961,20 L16.9838867,20 L15.987793,18.3798828 L14.9916992,20 L14.019043,20 L15.4399414,17.7910156 L14.1098633,15.7167969 L15.1118164,15.7167969 L16.034668,17.2578125 L16.9399414,15.7167969 L17.918457,15.7167969 L16.5737305,17.8408203 L18.0209961,20 Z" id="DOCX"></path>
                    </g>
                </g>
            </g>
        </g>
    </g>
</svg>