<?xml version="1.0" encoding="UTF-8"?>
<svg width="25px" height="30px" viewBox="0 0 25 30" version="1.1" xmlns="http://www.w3.org/2000/svg" xmlns:xlink="http://www.w3.org/1999/xlink">
    <!-- Generator: Sketch 53.2 (72643) - https://sketchapp.com -->
    <title>Virtru icons/Document Icon/Model Copy 39</title>
    <desc>Created with Sketch.</desc>
    <defs>
        <path d="M15,0 L21.3232233,0 C23.2562199,0 25,1.74378007 25,3.6767767 L25,10 L15,0 Z" id="path-1"></path>
        <filter x="-20.0%" y="-30.0%" width="140.0%" height="140.0%" filterUnits="objectBoundingBox" id="filter-2">
            <feOffset dx="0" dy="-1" in="SourceAlpha" result="shadowOffsetOuter1"></feOffset>
            <feGaussianBlur stdDeviation="0.5" in="shadowOffsetOuter1" result="shadowBlurOuter1"></feGaussianBlur>
            <feColorMatrix values="0 0 0 0 0   0 0 0 0 0   0 0 0 0 0  0 0 0 0.0967221467 0" type="matrix" in="shadowBlurOuter1"></feColorMatrix>
        </filter>
        <path d="M6.59570312,16.0898438 C6.59570312,17.0299526 6.32812768,17.7499975 5.79296875,18.25 C5.25780982,18.7500025 4.48503109,19 3.47460938,19 L1.85742188,19 L1.85742188,13.2890625 L3.65039062,13.2890625 C4.58268695,13.2890625 5.30663805,13.5351538 5.82226562,14.0273438 C6.3378932,14.5195337 6.59570312,15.2070268 6.59570312,16.0898438 Z M5.33789062,16.1210938 C5.33789062,14.8945251 4.79622938,14.28125 3.71289062,14.28125 L3.06835938,14.28125 L3.06835938,18 L3.58789062,18 C4.75456312,18 5.33789062,17.3737042 5.33789062,16.1210938 Z M12.9628906,16.1367188 C12.9628906,17.082036 12.728518,17.8085912 12.2597656,18.3164062 C11.7910133,18.8242213 11.119145,19.078125 10.2441406,19.078125 C9.36913625,19.078125 8.69726797,18.8242213 8.22851562,18.3164062 C7.75976328,17.8085912 7.52539062,17.0794318 7.52539062,16.1289062 C7.52539062,15.1783807 7.76041432,14.4524765 8.23046875,13.9511719 C8.70052318,13.4498673 9.37434457,13.1992188 10.2519531,13.1992188 C11.1295617,13.1992188 11.8007789,13.4518204 12.265625,13.9570312 C12.7304711,14.4622421 12.9628906,15.1887973 12.9628906,16.1367188 Z M8.79492188,16.1367188 C8.79492188,16.7747428 8.91601441,17.2552067 9.15820312,17.578125 C9.40039184,17.9010433 9.76236738,18.0625 10.2441406,18.0625 C11.2102913,18.0625 11.6933594,17.4205793 11.6933594,16.1367188 C11.6933594,14.850254 11.2128954,14.2070312 10.2519531,14.2070312 C9.77017988,14.2070312 9.40690227,14.369139 9.16210938,14.6933594 C8.91731648,15.0175797 8.79492188,15.4986947 8.79492188,16.1367188 Z M16.5722656,14.2148438 C16.1165342,14.2148438 15.7636731,14.386066 15.5136719,14.7285156 C15.2636706,15.0709653 15.1386719,15.548174 15.1386719,16.1601562 C15.1386719,17.4336001 15.6165317,18.0703125 16.5722656,18.0703125 C16.9733093,18.0703125 17.4589815,17.9700531 18.0292969,17.7695312 L18.0292969,18.7851562 C17.5605445,18.9804697 17.0371123,19.078125 16.4589844,19.078125 C15.6282511,19.078125 14.9928407,18.8261744 14.5527344,18.3222656 C14.112628,17.8183569 13.8925781,17.0950568 13.8925781,16.1523438 C13.8925781,15.5585908 14.00065,15.0384137 14.2167969,14.5917969 C14.4329438,14.1451801 14.7434876,13.8027356 15.1484375,13.5644531 C15.5533874,13.3261707 16.0279921,13.2070312 16.5722656,13.2070312 C17.1269559,13.2070312 17.684242,13.3411445 18.2441406,13.609375 L17.8535156,14.59375 C17.6399729,14.492187 17.4251313,14.4036462 17.2089844,14.328125 C16.9928375,14.2526038 16.7806,14.2148438 16.5722656,14.2148438 Z M23.8613281,19 L22.4785156,19 L21.1503906,16.8398438 L19.8222656,19 L18.5253906,19 L20.4199219,16.0546875 L18.6464844,13.2890625 L19.9824219,13.2890625 L21.2128906,15.34375 L22.4199219,13.2890625 L23.7246094,13.2890625 L21.9316406,16.1210938 L23.8613281,19 Z" id="path-3"></path>
    </defs>
    <g id="File-Icons" stroke="none" stroke-width="1" fill="none" fill-rule="evenodd">
        <g id="Individual-Chips" transform="translate(-137.000000, -127.000000)">
            <g id="col-1-flattened" transform="translate(137.000000, 57.000000)">
                <g id="Virtru-icons/Document-Icon/Model-Copy-26" transform="translate(0.000000, 70.000000)">
                    <path d="M14.7928932,0.5 L3.5,0.5 C1.84314575,0.5 0.5,1.84314575 0.5,3.5 L0.5,26.5 C0.5,28.1568542 1.84314575,29.5 3.5,29.5 L21.5,29.5 C23.1568542,29.5 24.5,28.1568542 24.5,26.5 L24.5,10.2071068 L14.7928932,0.5 Z" id="page" stroke="#3A9EF2" fill="#FFFFFF"></path>
                    <g id="curl" transform="translate(20.000000, 5.000000) scale(-1, -1) translate(-20.000000, -5.000000) ">
                        <use fill="black" fill-opacity="1" filter="url(#filter-2)" xlink:href="#path-1"></use>
                        <use fill="#106DBC" fill-rule="evenodd" xlink:href="#path-1"></use>
                    </g>
                    <g id="File-Icon-Contents">
                        <g id="Text-Color">
                            <mask id="mask-4" fill="white">
                                <use xlink:href="#path-3"></use>
                            </mask>
                            <use id="DOCX" fill="#FFFFFF" fill-rule="nonzero" xlink:href="#path-3"></use>
                            <rect fill="#3A9EF2" mask="url(#mask-4)" x="0" y="0" width="25" height="30"></rect>
                        </g>
                    </g>
                </g>
            </g>
        </g>
    </g>
</svg>