<?xml version="1.0" encoding="UTF-8"?>
<svg width="25px" height="30px" viewBox="0 0 25 30" version="1.1" xmlns="http://www.w3.org/2000/svg" xmlns:xlink="http://www.w3.org/1999/xlink">
    <!-- Generator: Sketch 53.2 (72643) - https://sketchapp.com -->
    <title>Page with curl small Copy 34</title>
    <desc>Created with Sketch.</desc>
    <defs>
        <path d="M15,0 L21.3232233,0 C23.2562199,0 25,1.74378007 25,3.6767767 L25,10 L15,0 Z" id="path-1"></path>
        <filter x="-20.0%" y="-30.0%" width="140.0%" height="140.0%" filterUnits="objectBoundingBox" id="filter-2">
            <feOffset dx="0" dy="-1" in="SourceAlpha" result="shadowOffsetOuter1"></feOffset>
            <feGaussianBlur stdDeviation="0.5" in="shadowOffsetOuter1" result="shadowBlurOuter1"></feGaussianBlur>
            <feColorMatrix values="0 0 0 0 0   0 0 0 0 0   0 0 0 0 0  0 0 0 0.0967221467 0" type="matrix" in="shadowBlurOuter1"></feColorMatrix>
        </filter>
    </defs>
    <g id="File-Icons" stroke="none" stroke-width="1" fill="none" fill-rule="evenodd">
        <g id="Icons" transform="translate(-186.000000, -434.000000)">
            <g id="Page-with-curl-small-Copy-34" transform="translate(186.000000, 434.000000)">
                <path d="M14.7928932,0.5 L3.5,0.5 C1.84314575,0.5 0.5,1.84314575 0.5,3.5 L0.5,26.5 C0.5,28.1568542 1.84314575,29.5 3.5,29.5 L21.5,29.5 C23.1568542,29.5 24.5,28.1568542 24.5,26.5 L24.5,10.2071068 L14.7928932,0.5 Z" id="page" stroke="#30BEC3" fill="#FFFFFF"></path>
                <g id="curl" transform="translate(20.000000, 5.000000) scale(-1, -1) translate(-20.000000, -5.000000) ">
                    <use fill="black" fill-opacity="1" filter="url(#filter-2)" xlink:href="#path-1"></use>
                    <use fill="#118387" fill-rule="evenodd" xlink:href="#path-1"></use>
                </g>
                <path d="M4.24804688,13.2890625 L6.02539062,13.2890625 C6.83529051,13.2890625 7.42317525,13.4042957 7.7890625,13.6347656 C8.15494975,13.8652355 8.33789062,14.2317683 8.33789062,14.734375 C8.33789062,15.0755225 8.2578133,15.3554677 8.09765625,15.5742188 C7.9374992,15.7929698 7.7246107,15.9244789 7.45898438,15.96875 L7.45898438,16.0078125 C7.82096535,16.0885421 8.08203045,16.2395822 8.2421875,16.4609375 C8.40234455,16.6822928 8.48242188,16.9765607 8.48242188,17.34375 C8.48242188,17.8645859 8.29427271,18.2708319 7.91796875,18.5625 C7.54166479,18.8541681 7.03060219,19 6.38476562,19 L4.24804688,19 L4.24804688,13.2890625 Z M5.45898438,15.5507812 L6.16210938,15.5507812 C6.49023602,15.5507812 6.72786385,15.5000005 6.875,15.3984375 C7.02213615,15.2968745 7.09570312,15.1289074 7.09570312,14.8945312 C7.09570312,14.6757802 7.0156258,14.5188807 6.85546875,14.4238281 C6.6953117,14.3287756 6.44205902,14.28125 6.09570312,14.28125 L5.45898438,14.28125 L5.45898438,15.5507812 Z M5.45898438,16.5117188 L5.45898438,18 L6.24804688,18 C6.58138187,18 6.82747316,17.9361986 6.98632812,17.8085938 C7.14518309,17.6809889 7.22460938,17.4856784 7.22460938,17.2226562 C7.22460938,16.7486955 6.88607109,16.5117188 6.20898438,16.5117188 L5.45898438,16.5117188 Z M12.0410156,19 L10.6660156,14.5195312 L10.6308594,14.5195312 C10.6803388,15.4309941 10.7050781,16.039061 10.7050781,16.34375 L10.7050781,19 L9.62304688,19 L9.62304688,13.2890625 L11.2714844,13.2890625 L12.6230469,17.65625 L12.6464844,17.65625 L14.0800781,13.2890625 L15.7285156,13.2890625 L15.7285156,19 L14.5996094,19 L14.5996094,16.296875 C14.5996094,16.1692702 14.6015625,16.0221362 14.6054688,15.8554688 C14.609375,15.6888013 14.626953,15.2460973 14.6582031,14.5273438 L14.6230469,14.5273438 L13.1503906,19 L12.0410156,19 Z M18.3769531,15.9765625 L18.7753906,15.9765625 C19.1477883,15.9765625 19.4264314,15.9029955 19.6113281,15.7558594 C19.7962249,15.6087232 19.8886719,15.3945327 19.8886719,15.1132812 C19.8886719,14.8294257 19.8111987,14.6197923 19.65625,14.484375 C19.5013013,14.3489577 19.2584652,14.28125 18.9277344,14.28125 L18.3769531,14.28125 L18.3769531,15.9765625 Z M21.1113281,15.0703125 C21.1113281,15.6848989 20.9192728,16.1549463 20.5351562,16.4804688 C20.1510397,16.8059912 19.6048213,16.96875 18.8964844,16.96875 L18.3769531,16.96875 L18.3769531,19 L17.1660156,19 L17.1660156,13.2890625 L18.9902344,13.2890625 C19.6829462,13.2890625 20.2096336,13.4381496 20.5703125,13.7363281 C20.9309914,14.0345067 21.1113281,14.4791637 21.1113281,15.0703125 Z" id="BMP" fill="#30BEC3" fill-rule="nonzero"></path>
            </g>
        </g>
    </g>
</svg>