<?xml version="1.0" encoding="UTF-8"?>
<svg width="25px" height="30px" viewBox="0 0 25 30" version="1.1" xmlns="http://www.w3.org/2000/svg" xmlns:xlink="http://www.w3.org/1999/xlink">
    <!-- Generator: Sketch 53.2 (72643) - https://sketchapp.com -->
    <title>Virtru icons/Document Icon/Model Copy 30</title>
    <desc>Created with Sketch.</desc>
    <defs>
        <linearGradient x1="23.965115%" y1="100%" x2="84.7222222%" y2="0%" id="linearGradient-1">
            <stop stop-color="#969DA9" offset="0%"></stop>
            <stop stop-color="#646A78" offset="100%"></stop>
        </linearGradient>
        <path d="M15,0 L21.3232233,0 C23.2562199,0 25,1.74378007 25,3.6767767 L25,10 L15,0 Z" id="path-2"></path>
        <filter x="-20.0%" y="-30.0%" width="140.0%" height="140.0%" filterUnits="objectBoundingBox" id="filter-3">
            <feOffset dx="0" dy="-1" in="SourceAlpha" result="shadowOffsetOuter1"></feOffset>
            <feGaussianBlur stdDeviation="0.5" in="shadowOffsetOuter1" result="shadowBlurOuter1"></feGaussianBlur>
            <feColorMatrix values="0 0 0 0 0   0 0 0 0 0   0 0 0 0 0  0 0 0 0.0967221467 0" type="matrix" in="shadowBlurOuter1"></feColorMatrix>
        </filter>
    </defs>
    <g id="File-Icons" stroke="none" stroke-width="1" fill="none" fill-rule="evenodd">
        <g id="Individual-Chips" transform="translate(-376.000000, -267.000000)">
            <g id="col-2-flattened" transform="translate(376.000000, 57.000000)">
                <g id="Virtru-icons/Document-Icon/Model-Copy-17" transform="translate(0.000000, 210.000000)">
                    <path d="M15,0 L25,10 L25,26.5 C25,28.4329966 23.4329966,30 21.5,30 L3.5,30 C1.56700338,30 0,28.4329966 0,26.5 L0,3.5 C0,1.56700338 1.56700338,0 3.5,0 L15,0 Z" id="page" fill="url(#linearGradient-1)"></path>
                    <g id="curl" transform="translate(20.000000, 5.000000) scale(-1, -1) translate(-20.000000, -5.000000) ">
                        <use fill="black" fill-opacity="1" filter="url(#filter-3)" xlink:href="#path-2"></use>
                        <use fill="#393C44" fill-rule="evenodd" xlink:href="#path-2"></use>
                    </g>
                    <g id="File-Icon-Contents" transform="translate(4.000000, 7.000000)" fill="#FFFFFF" fill-rule="nonzero">
                        <g id="Virtru-icons/24/Encrypted-solid-24" transform="translate(1.700000, 0.000000)">
                            <path d="M3.67998211,4.54065302 L3.67998211,3.96467029 C3.67998211,2.0400112 4.96011757,0.560069469 6.80728341,0.560069469 C8.65271315,0.560069469 9.91863304,2.03683618 9.91863304,3.96467029 L9.91863304,4.54065302 L10.7321586,4.54065302 C11.5375738,4.54065302 12.1904919,5.19357109 12.1904919,5.99898635 L12.1904919,11.5927083 C12.1904919,12.3981236 11.5375738,13.0510416 10.7321586,13.0510416 L2.87895256,13.0510416 C2.0735373,13.0510416 1.42061922,12.3981236 1.42061922,11.5927083 L1.42061922,5.99898635 C1.42061922,5.19357109 2.0735373,4.54065302 2.87895256,4.54065302 L3.67998211,4.54065302 Z M4.81424137,4.54065302 L8.78437378,4.54065302 L8.78437378,3.96467029 C8.78437378,2.6278158 7.98416625,1.69432873 6.80728341,1.69432873 C5.62605132,1.69432873 4.81424137,2.63284771 4.81424137,3.96467029 L4.81424137,4.54065302 Z M7.68788525,7.2958383 C7.68788525,8.44251972 6.94392555,9.01525856 6.38747088,9.28327096 L6.38747088,9.25763133 L6.38747088,6.89764156 L5.39007637,6.89764156 L5.39007637,10.5715722 L5.98521965,10.4562541 C6.91919423,10.2752118 8.68534097,9.38179697 8.68534097,7.2958383 C8.68534097,7.02511748 8.46208572,6.80555556 8.18661311,6.80555556 C7.91120171,6.80555556 7.68788525,7.02511748 7.68788525,7.2958383 Z" id="icon"></path>
                        </g>
                        <path d="M2.44140625,17.7324219 L2.74023438,17.7324219 C3.01953265,17.7324219 3.22851493,17.6772466 3.3671875,17.5668945 C3.50586007,17.4565424 3.57519531,17.2958995 3.57519531,17.0849609 C3.57519531,16.8720692 3.51709042,16.7148443 3.40087891,16.6132812 C3.28466739,16.5117182 3.1025403,16.4609375 2.85449219,16.4609375 L2.44140625,16.4609375 L2.44140625,17.7324219 Z M4.4921875,17.0527344 C4.4921875,17.5136742 4.34814597,17.8662097 4.06005859,18.1103516 C3.77197122,18.3544934 3.36230734,18.4765625 2.83105469,18.4765625 L2.44140625,18.4765625 L2.44140625,20 L1.53320312,20 L1.53320312,15.7167969 L2.90136719,15.7167969 C3.42090104,15.7167969 3.81591662,15.8286122 4.08642578,16.0522461 C4.35693495,16.27588 4.4921875,16.6093728 4.4921875,17.0527344 Z M6.20898438,17.7324219 L6.5078125,17.7324219 C6.78711077,17.7324219 6.99609306,17.6772466 7.13476562,17.5668945 C7.27343819,17.4565424 7.34277344,17.2958995 7.34277344,17.0849609 C7.34277344,16.8720692 7.28466855,16.7148443 7.16845703,16.6132812 C7.05224551,16.5117182 6.87011843,16.4609375 6.62207031,16.4609375 L6.20898438,16.4609375 L6.20898438,17.7324219 Z M8.25976562,17.0527344 C8.25976562,17.5136742 8.1157241,17.8662097 7.82763672,18.1103516 C7.53954934,18.3544934 7.12988547,18.4765625 6.59863281,18.4765625 L6.20898438,18.4765625 L6.20898438,20 L5.30078125,20 L5.30078125,15.7167969 L6.66894531,15.7167969 C7.18847916,15.7167969 7.58349474,15.8286122 7.85400391,16.0522461 C8.12451307,16.27588 8.25976562,16.6093728 8.25976562,17.0527344 Z M10.7207031,20 L9.8125,20 L9.8125,16.4726562 L8.64941406,16.4726562 L8.64941406,15.7167969 L11.8837891,15.7167969 L11.8837891,16.4726562 L10.7207031,16.4726562 L10.7207031,20 Z M16.0058594,20 L14.96875,20 L13.9726562,18.3798828 L12.9765625,20 L12.0039062,20 L13.4248047,17.7910156 L12.0947266,15.7167969 L13.0966797,15.7167969 L14.0195312,17.2578125 L14.9248047,15.7167969 L15.9033203,15.7167969 L14.5585938,17.8408203 L16.0058594,20 Z" id="PPTX"></path>
                    </g>
                </g>
            </g>
        </g>
    </g>
</svg>