<?xml version="1.0" encoding="UTF-8"?>
<svg width="25px" height="30px" viewBox="0 0 25 30" version="1.1" xmlns="http://www.w3.org/2000/svg" xmlns:xlink="http://www.w3.org/1999/xlink">
    <!-- Generator: Sketch 53.2 (72643) - https://sketchapp.com -->
    <title>Virtru icons/Document Icon/Model Copy 28</title>
    <desc>Created with Sketch.</desc>
    <defs>
        <linearGradient x1="23.965115%" y1="100%" x2="84.7222222%" y2="0%" id="linearGradient-1">
            <stop stop-color="#969DA9" offset="0%"></stop>
            <stop stop-color="#646A78" offset="100%"></stop>
        </linearGradient>
        <path d="M15,0 L21.3232233,0 C23.2562199,0 25,1.74378007 25,3.6767767 L25,10 L15,0 Z" id="path-2"></path>
        <filter x="-20.0%" y="-30.0%" width="140.0%" height="140.0%" filterUnits="objectBoundingBox" id="filter-3">
            <feOffset dx="0" dy="-1" in="SourceAlpha" result="shadowOffsetOuter1"></feOffset>
            <feGaussianBlur stdDeviation="0.5" in="shadowOffsetOuter1" result="shadowBlurOuter1"></feGaussianBlur>
            <feColorMatrix values="0 0 0 0 0   0 0 0 0 0   0 0 0 0 0  0 0 0 0.0967221467 0" type="matrix" in="shadowBlurOuter1"></feColorMatrix>
        </filter>
    </defs>
    <g id="File-Icons" stroke="none" stroke-width="1" fill="none" fill-rule="evenodd">
        <g id="Individual-Chips" transform="translate(-376.000000, -407.000000)">
            <g id="col-2-flattened" transform="translate(376.000000, 57.000000)">
                <g id="Virtru-icons/Document-Icon/Model-Copy-15" transform="translate(0.000000, 350.000000)">
                    <path d="M15,0 L25,10 L25,26.5 C25,28.4329966 23.4329966,30 21.5,30 L3.5,30 C1.56700338,30 0,28.4329966 0,26.5 L0,3.5 C0,1.56700338 1.56700338,0 3.5,0 L15,0 Z" id="page" fill="url(#linearGradient-1)"></path>
                    <g id="curl" transform="translate(20.000000, 5.000000) scale(-1, -1) translate(-20.000000, -5.000000) ">
                        <use fill="black" fill-opacity="1" filter="url(#filter-3)" xlink:href="#path-2"></use>
                        <use fill="#393C44" fill-rule="evenodd" xlink:href="#path-2"></use>
                    </g>
                    <g id="File-Icon-Contents" transform="translate(5.000000, 7.000000)" fill="#FFFFFF" fill-rule="nonzero">
                        <g id="Virtru-icons/24/Encrypted-solid-24" transform="translate(0.700000, 0.000000)">
                            <path d="M3.67998211,4.54065302 L3.67998211,3.96467029 C3.67998211,2.0400112 4.96011757,0.560069469 6.80728341,0.560069469 C8.65271315,0.560069469 9.91863304,2.03683618 9.91863304,3.96467029 L9.91863304,4.54065302 L10.7321586,4.54065302 C11.5375738,4.54065302 12.1904919,5.19357109 12.1904919,5.99898635 L12.1904919,11.5927083 C12.1904919,12.3981236 11.5375738,13.0510416 10.7321586,13.0510416 L2.87895256,13.0510416 C2.0735373,13.0510416 1.42061922,12.3981236 1.42061922,11.5927083 L1.42061922,5.99898635 C1.42061922,5.19357109 2.0735373,4.54065302 2.87895256,4.54065302 L3.67998211,4.54065302 Z M4.81424137,4.54065302 L8.78437378,4.54065302 L8.78437378,3.96467029 C8.78437378,2.6278158 7.98416625,1.69432873 6.80728341,1.69432873 C5.62605132,1.69432873 4.81424137,2.63284771 4.81424137,3.96467029 L4.81424137,4.54065302 Z M7.68788525,7.2958383 C7.68788525,8.44251972 6.94392555,9.01525856 6.38747088,9.28327096 L6.38747088,9.25763133 L6.38747088,6.89764156 L5.39007637,6.89764156 L5.39007637,10.5715722 L5.98521965,10.4562541 C6.91919423,10.2752118 8.68534097,9.38179697 8.68534097,7.2958383 C8.68534097,7.02511748 8.46208572,6.80555556 8.18661311,6.80555556 C7.91120171,6.80555556 7.68788525,7.02511748 7.68788525,7.2958383 Z" id="icon"></path>
                        </g>
                        <path d="M2.54150391,21.2597656 C2.33642476,21.2597656 2.15771561,21.2382815 2.00537109,21.1953125 L2.00537109,20.4394531 C2.16162187,20.4785158 2.30419857,20.4980469 2.43310547,20.4980469 C2.63232521,20.4980469 2.77490191,20.4360358 2.86083984,20.3120117 C2.94677777,20.1879877 2.98974609,19.9941419 2.98974609,19.7304688 L2.98974609,15.7167969 L3.89794922,15.7167969 L3.89794922,19.7246094 C3.89794922,20.2246119 3.78369255,20.6054674 3.55517578,20.8671875 C3.32665901,21.1289076 2.98877177,21.2597656 2.54150391,21.2597656 Z M5.88427734,17.7324219 L6.18310547,17.7324219 C6.46240374,17.7324219 6.67138603,17.6772466 6.81005859,17.5668945 C6.94873116,17.4565424 7.01806641,17.2958995 7.01806641,17.0849609 C7.01806641,16.8720692 6.95996152,16.7148443 6.84375,16.6132812 C6.72753848,16.5117182 6.5454114,16.4609375 6.29736328,16.4609375 L5.88427734,16.4609375 L5.88427734,17.7324219 Z M7.93505859,17.0527344 C7.93505859,17.5136742 7.79101707,17.8662097 7.50292969,18.1103516 C7.21484231,18.3544934 6.80517844,18.4765625 6.27392578,18.4765625 L5.88427734,18.4765625 L5.88427734,20 L4.97607422,20 L4.97607422,15.7167969 L6.34423828,15.7167969 C6.86377213,15.7167969 7.25878771,15.8286122 7.52929688,16.0522461 C7.79980604,16.27588 7.93505859,16.6093728 7.93505859,17.0527344 Z M10.3696289,17.5947266 L12.0688477,17.5947266 L12.0688477,19.8154297 C11.7934557,19.9052739 11.5341809,19.9682615 11.2910156,20.0043945 C11.0478503,20.0405275 10.7993177,20.0585938 10.5454102,20.0585938 C9.89892255,20.0585938 9.40527514,19.8686542 9.06445312,19.4887695 C8.72363111,19.1088848 8.55322266,18.5634801 8.55322266,17.8525391 C8.55322266,17.1611294 8.75097458,16.6220722 9.14648438,16.2353516 C9.54199417,15.8486309 10.0903285,15.6552734 10.7915039,15.6552734 C11.2309592,15.6552734 11.6547831,15.7431632 12.0629883,15.9189453 L11.7612305,16.6455078 C11.4487289,16.489257 11.1235368,16.4111328 10.7856445,16.4111328 C10.3930644,16.4111328 10.0786145,16.5429674 9.84228516,16.8066406 C9.60595585,17.0703138 9.48779297,17.4248025 9.48779297,17.8701172 C9.48779297,18.3349633 9.58300686,18.6899402 9.7734375,18.9350586 C9.96386814,19.180177 10.2407208,19.3027344 10.6040039,19.3027344 C10.793458,19.3027344 10.9858389,19.2832033 11.1811523,19.2441406 L11.1811523,18.3505859 L10.3696289,18.3505859 L10.3696289,17.5947266 Z" id="JPG"></path>
                    </g>
                </g>
            </g>
        </g>
    </g>
</svg>