<?xml version="1.0" encoding="UTF-8"?>
<svg width="25px" height="30px" viewBox="0 0 25 30" version="1.1" xmlns="http://www.w3.org/2000/svg" xmlns:xlink="http://www.w3.org/1999/xlink">
    <!-- Generator: Sketch 53.2 (72643) - https://sketchapp.com -->
    <title>Page with curl small Copy 32</title>
    <desc>Created with Sketch.</desc>
    <defs>
        <path d="M15,0 L21.3232233,0 C23.2562199,0 25,1.74378007 25,3.6767767 L25,10 L15,0 Z" id="path-1"></path>
        <filter x="-20.0%" y="-30.0%" width="140.0%" height="140.0%" filterUnits="objectBoundingBox" id="filter-2">
            <feOffset dx="0" dy="-1" in="SourceAlpha" result="shadowOffsetOuter1"></feOffset>
            <feGaussianBlur stdDeviation="0.5" in="shadowOffsetOuter1" result="shadowBlurOuter1"></feGaussianBlur>
            <feColorMatrix values="0 0 0 0 0   0 0 0 0 0   0 0 0 0 0  0 0 0 0.0967221467 0" type="matrix" in="shadowBlurOuter1"></feColorMatrix>
        </filter>
    </defs>
    <g id="File-Icons" stroke="none" stroke-width="1" fill="none" fill-rule="evenodd">
        <g id="Icons" transform="translate(-266.000000, -434.000000)">
            <g id="Page-with-curl-small-Copy-32" transform="translate(266.000000, 434.000000)">
                <path d="M14.7928932,0.5 L3.5,0.5 C1.84314575,0.5 0.5,1.84314575 0.5,3.5 L0.5,26.5 C0.5,28.1568542 1.84314575,29.5 3.5,29.5 L21.5,29.5 C23.1568542,29.5 24.5,28.1568542 24.5,26.5 L24.5,10.2071068 L14.7928932,0.5 Z" id="page" stroke="#30BEC3" fill="#FFFFFF"></path>
                <g id="curl" transform="translate(20.000000, 5.000000) scale(-1, -1) translate(-20.000000, -5.000000) ">
                    <use fill="black" fill-opacity="1" filter="url(#filter-2)" xlink:href="#path-1"></use>
                    <use fill="#118387" fill-rule="evenodd" xlink:href="#path-1"></use>
                </g>
                <path d="M8.97070312,15.7929688 L11.2363281,15.7929688 L11.2363281,18.7539062 C10.8691388,18.8736985 10.5234391,18.9576821 10.1992188,19.0058594 C9.87499838,19.0540367 9.54362148,19.078125 9.20507812,19.078125 C8.34309465,19.078125 7.68489811,18.8248723 7.23046875,18.3183594 C6.77603939,17.8118464 6.54882812,17.0846402 6.54882812,16.1367188 C6.54882812,15.2148391 6.81249736,14.4960963 7.33984375,13.9804688 C7.86719014,13.4648412 8.59830262,13.2070312 9.53320312,13.2070312 C10.1191436,13.2070312 10.6842421,13.3242176 11.2285156,13.5585938 L10.8261719,14.5273438 C10.4095031,14.3190094 9.97591371,14.2148438 9.52539062,14.2148438 C9.00195051,14.2148438 8.58268387,14.3906232 8.26757812,14.7421875 C7.95247238,15.0937518 7.79492188,15.5664033 7.79492188,16.1601562 C7.79492188,16.779951 7.92187373,17.2532536 8.17578125,17.5800781 C8.42968877,17.9069027 8.7988257,18.0703125 9.28320312,18.0703125 C9.53580855,18.0703125 9.79231641,18.0442711 10.0527344,17.9921875 L10.0527344,16.8007812 L8.97070312,16.8007812 L8.97070312,15.7929688 Z M12.5957031,19 L12.5957031,13.2890625 L13.8066406,13.2890625 L13.8066406,19 L12.5957031,19 Z M16.4355469,19 L15.2441406,19 L15.2441406,13.2890625 L18.5175781,13.2890625 L18.5175781,14.28125 L16.4355469,14.28125 L16.4355469,15.7539062 L18.3730469,15.7539062 L18.3730469,16.7421875 L16.4355469,16.7421875 L16.4355469,19 Z" id="GIF" fill="#30BEC3" fill-rule="nonzero"></path>
            </g>
            <g id="Slices" transform="translate(186.000000, 384.000000)"></g>
        </g>
    </g>
</svg>