<?xml version="1.0" encoding="UTF-8"?>
<svg width="25px" height="30px" viewBox="0 0 25 30" version="1.1" xmlns="http://www.w3.org/2000/svg" xmlns:xlink="http://www.w3.org/1999/xlink">
    <!-- Generator: Sketch 53.2 (72643) - https://sketchapp.com -->
    <title>Virtru icons/Document Icon/Model Copy 35</title>
    <desc>Created with Sketch.</desc>
    <defs>
        <path d="M15,0 L21.3232233,0 C23.2562199,0 25,1.74378007 25,3.6767767 L25,10 L15,0 Z" id="path-1"></path>
        <filter x="-20.0%" y="-30.0%" width="140.0%" height="140.0%" filterUnits="objectBoundingBox" id="filter-2">
            <feOffset dx="0" dy="-1" in="SourceAlpha" result="shadowOffsetOuter1"></feOffset>
            <feGaussianBlur stdDeviation="0.5" in="shadowOffsetOuter1" result="shadowBlurOuter1"></feGaussianBlur>
            <feColorMatrix values="0 0 0 0 0   0 0 0 0 0   0 0 0 0 0  0 0 0 0.0967221467 0" type="matrix" in="shadowBlurOuter1"></feColorMatrix>
        </filter>
        <path d="M5.88867188,20.6796875 C5.61523301,20.6796875 5.37695414,20.651042 5.17382812,20.59375 L5.17382812,19.5859375 C5.3821625,19.6380211 5.57226477,19.6640625 5.74414062,19.6640625 C6.00976695,19.6640625 6.19986922,19.581381 6.31445312,19.4160156 C6.42903703,19.2506502 6.48632812,18.9921893 6.48632812,18.640625 L6.48632812,13.2890625 L7.69726562,13.2890625 L7.69726562,18.6328125 C7.69726562,19.2994825 7.5449234,19.8072899 7.24023438,20.15625 C6.93554535,20.5052101 6.48502902,20.6796875 5.88867188,20.6796875 Z M10.3457031,15.9765625 L10.7441406,15.9765625 C11.1165383,15.9765625 11.3951814,15.9029955 11.5800781,15.7558594 C11.7649749,15.6087232 11.8574219,15.3945327 11.8574219,15.1132812 C11.8574219,14.8294257 11.7799487,14.6197923 11.625,14.484375 C11.4700513,14.3489577 11.2272152,14.28125 10.8964844,14.28125 L10.3457031,14.28125 L10.3457031,15.9765625 Z M13.0800781,15.0703125 C13.0800781,15.6848989 12.8880228,16.1549463 12.5039062,16.4804688 C12.1197897,16.8059912 11.5735713,16.96875 10.8652344,16.96875 L10.3457031,16.96875 L10.3457031,19 L9.13476562,19 L9.13476562,13.2890625 L10.9589844,13.2890625 C11.6516962,13.2890625 12.1783836,13.4381496 12.5390625,13.7363281 C12.8997414,14.0345067 13.0800781,14.4791637 13.0800781,15.0703125 Z M16.3261719,15.7929688 L18.5917969,15.7929688 L18.5917969,18.7539062 C18.2246075,18.8736985 17.8789079,18.9576821 17.5546875,19.0058594 C17.2304671,19.0540367 16.8990902,19.078125 16.5605469,19.078125 C15.6985634,19.078125 15.0403669,18.8248723 14.5859375,18.3183594 C14.1315081,17.8118464 13.9042969,17.0846402 13.9042969,16.1367188 C13.9042969,15.2148391 14.1679661,14.4960963 14.6953125,13.9804688 C15.2226589,13.4648412 15.9537714,13.2070312 16.8886719,13.2070312 C17.4746123,13.2070312 18.0397108,13.3242176 18.5839844,13.5585938 L18.1816406,14.5273438 C17.7649719,14.3190094 17.3313825,14.2148438 16.8808594,14.2148438 C16.3574193,14.2148438 15.9381526,14.3906232 15.6230469,14.7421875 C15.3079411,15.0937518 15.1503906,15.5664033 15.1503906,16.1601562 C15.1503906,16.779951 15.2773425,17.2532536 15.53125,17.5800781 C15.7851575,17.9069027 16.1542945,18.0703125 16.6386719,18.0703125 C16.8912773,18.0703125 17.1477852,18.0442711 17.4082031,17.9921875 L17.4082031,16.8007812 L16.3261719,16.8007812 L16.3261719,15.7929688 Z" id="path-3"></path>
    </defs>
    <g id="File-Icons" stroke="none" stroke-width="1" fill="none" fill-rule="evenodd">
        <g id="Individual-Chips" transform="translate(-137.000000, -407.000000)">
            <g id="col-1-flattened" transform="translate(137.000000, 57.000000)">
                <g id="Virtru-icons/Document-Icon/Model-Copy-22" transform="translate(0.000000, 350.000000)">
                    <path d="M14.7928932,0.5 L3.5,0.5 C1.84314575,0.5 0.5,1.84314575 0.5,3.5 L0.5,26.5 C0.5,28.1568542 1.84314575,29.5 3.5,29.5 L21.5,29.5 C23.1568542,29.5 24.5,28.1568542 24.5,26.5 L24.5,10.2071068 L14.7928932,0.5 Z" id="page" stroke="#30BEC3" fill="#FFFFFF"></path>
                    <g id="curl" transform="translate(20.000000, 5.000000) scale(-1, -1) translate(-20.000000, -5.000000) ">
                        <use fill="black" fill-opacity="1" filter="url(#filter-2)" xlink:href="#path-1"></use>
                        <use fill="#118387" fill-rule="evenodd" xlink:href="#path-1"></use>
                    </g>
                    <g id="File-Icon-Contents">
                        <g id="Text-Color">
                            <mask id="mask-4" fill="white">
                                <use xlink:href="#path-3"></use>
                            </mask>
                            <use id="JPG" fill="#FFFFFF" fill-rule="nonzero" xlink:href="#path-3"></use>
                            <rect fill="#30BEC3" mask="url(#mask-4)" x="0" y="0" width="25" height="30"></rect>
                        </g>
                    </g>
                </g>
            </g>
        </g>
    </g>
</svg>