<?xml version="1.0" encoding="UTF-8"?>
<svg width="25px" height="30px" viewBox="0 0 25 30" version="1.1" xmlns="http://www.w3.org/2000/svg" xmlns:xlink="http://www.w3.org/1999/xlink">
    <!-- Generator: Sketch 53.2 (72643) - https://sketchapp.com -->
    <title>Virtru icons/Document Icon/Model Copy 34</title>
    <desc>Created with Sketch.</desc>
    <defs>
        <path d="M15,0 L21.3232233,0 C23.2562199,0 25,1.74378007 25,3.6767767 L25,10 L15,0 Z" id="path-1"></path>
        <filter x="-20.0%" y="-30.0%" width="140.0%" height="140.0%" filterUnits="objectBoundingBox" id="filter-2">
            <feOffset dx="0" dy="-1" in="SourceAlpha" result="shadowOffsetOuter1"></feOffset>
            <feGaussianBlur stdDeviation="0.5" in="shadowOffsetOuter1" result="shadowBlurOuter1"></feGaussianBlur>
            <feColorMatrix values="0 0 0 0 0   0 0 0 0 0   0 0 0 0 0  0 0 0 0.0967221467 0" type="matrix" in="shadowBlurOuter1"></feColorMatrix>
        </filter>
        <path d="M5.76953125,15.9765625 L6.16796875,15.9765625 C6.54036645,15.9765625 6.81900949,15.9029955 7.00390625,15.7558594 C7.18880301,15.6087232 7.28125,15.3945327 7.28125,15.1132812 C7.28125,14.8294257 7.20377682,14.6197923 7.04882812,14.484375 C6.89387943,14.3489577 6.65104332,14.28125 6.3203125,14.28125 L5.76953125,14.28125 L5.76953125,15.9765625 Z M8.50390625,15.0703125 C8.50390625,15.6848989 8.31185088,16.1549463 7.92773438,16.4804688 C7.54361787,16.8059912 6.99739937,16.96875 6.2890625,16.96875 L5.76953125,16.96875 L5.76953125,19 L4.55859375,19 L4.55859375,13.2890625 L6.3828125,13.2890625 C7.0755243,13.2890625 7.60221174,13.4381496 7.96289062,13.7363281 C8.32356951,14.0345067 8.50390625,14.4791637 8.50390625,15.0703125 Z M14.6484375,19 L13.109375,19 L10.625,14.6796875 L10.5898438,14.6796875 C10.6393232,15.4427121 10.6640625,15.9869775 10.6640625,16.3125 L10.6640625,19 L9.58203125,19 L9.58203125,13.2890625 L11.109375,13.2890625 L13.5898438,17.5664062 L13.6171875,17.5664062 C13.5781248,16.824215 13.5585938,16.2994807 13.5585938,15.9921875 L13.5585938,13.2890625 L14.6484375,13.2890625 L14.6484375,19 Z M18.2539062,15.7929688 L20.5195312,15.7929688 L20.5195312,18.7539062 C20.1523419,18.8736985 19.8066422,18.9576821 19.4824219,19.0058594 C19.1582015,19.0540367 18.8268246,19.078125 18.4882812,19.078125 C17.6262978,19.078125 16.9681012,18.8248723 16.5136719,18.3183594 C16.0592425,17.8118464 15.8320312,17.0846402 15.8320312,16.1367188 C15.8320312,15.2148391 16.0957005,14.4960963 16.6230469,13.9804688 C17.1503933,13.4648412 17.8815057,13.2070312 18.8164062,13.2070312 C19.4023467,13.2070312 19.9674452,13.3242176 20.5117188,13.5585938 L20.109375,14.5273438 C19.6927063,14.3190094 19.2591168,14.2148438 18.8085938,14.2148438 C18.2851536,14.2148438 17.865887,14.3906232 17.5507812,14.7421875 C17.2356755,15.0937518 17.078125,15.5664033 17.078125,16.1601562 C17.078125,16.779951 17.2050769,17.2532536 17.4589844,17.5800781 C17.7128919,17.9069027 18.0820288,18.0703125 18.5664062,18.0703125 C18.8190117,18.0703125 19.0755195,18.0442711 19.3359375,17.9921875 L19.3359375,16.8007812 L18.2539062,16.8007812 L18.2539062,15.7929688 Z" id="path-3"></path>
    </defs>
    <g id="File-Icons" stroke="none" stroke-width="1" fill="none" fill-rule="evenodd">
        <g id="Individual-Chips" transform="translate(-137.000000, -487.000000)">
            <g id="col-1-flattened" transform="translate(137.000000, 57.000000)">
                <g id="Virtru-icons/Document-Icon/Model-Copy-21" transform="translate(0.000000, 430.000000)">
                    <path d="M14.7928932,0.5 L3.5,0.5 C1.84314575,0.5 0.5,1.84314575 0.5,3.5 L0.5,26.5 C0.5,28.1568542 1.84314575,29.5 3.5,29.5 L21.5,29.5 C23.1568542,29.5 24.5,28.1568542 24.5,26.5 L24.5,10.2071068 L14.7928932,0.5 Z" id="page" stroke="#30BEC3" fill="#FFFFFF"></path>
                    <g id="curl" transform="translate(20.000000, 5.000000) scale(-1, -1) translate(-20.000000, -5.000000) ">
                        <use fill="black" fill-opacity="1" filter="url(#filter-2)" xlink:href="#path-1"></use>
                        <use fill="#118387" fill-rule="evenodd" xlink:href="#path-1"></use>
                    </g>
                    <g id="File-Icon-Contents">
                        <g id="Text-Color">
                            <mask id="mask-4" fill="white">
                                <use xlink:href="#path-3"></use>
                            </mask>
                            <use id="PNG" fill="#FFFFFF" fill-rule="nonzero" xlink:href="#path-3"></use>
                            <rect fill="#30BEC3" mask="url(#mask-4)" x="0" y="0" width="25" height="30"></rect>
                        </g>
                    </g>
                </g>
            </g>
        </g>
    </g>
</svg>