<?xml version="1.0" encoding="UTF-8"?>
<svg width="25px" height="30px" viewBox="0 0 25 30" version="1.1" xmlns="http://www.w3.org/2000/svg" xmlns:xlink="http://www.w3.org/1999/xlink">
    <!-- Generator: Sketch 53.2 (72643) - https://sketchapp.com -->
    <title>Virtru icons/Document Icon/Model Copy 14</title>
    <desc>Created with Sketch.</desc>
    <defs>
        <linearGradient x1="23.965115%" y1="100%" x2="84.7222222%" y2="0%" id="linearGradient-1">
            <stop stop-color="#969DA9" offset="0%"></stop>
            <stop stop-color="#646A78" offset="100%"></stop>
        </linearGradient>
        <path d="M15,0 L21.3232233,0 C23.2562199,0 25,1.74378007 25,3.6767767 L25,10 L15,0 Z" id="path-2"></path>
        <filter x="-20.0%" y="-30.0%" width="140.0%" height="140.0%" filterUnits="objectBoundingBox" id="filter-3">
            <feOffset dx="0" dy="-1" in="SourceAlpha" result="shadowOffsetOuter1"></feOffset>
            <feGaussianBlur stdDeviation="0.5" in="shadowOffsetOuter1" result="shadowBlurOuter1"></feGaussianBlur>
            <feColorMatrix values="0 0 0 0 0   0 0 0 0 0   0 0 0 0 0  0 0 0 0.0967221467 0" type="matrix" in="shadowBlurOuter1"></feColorMatrix>
        </filter>
    </defs>
    <g id="File-Icons" stroke="none" stroke-width="1" fill="none" fill-rule="evenodd">
        <g id="Individual-Chips" transform="translate(-376.000000, -487.000000)">
            <g id="col-2-flattened" transform="translate(376.000000, 57.000000)">
                <g id="Virtru-icons/Document-Icon/Model-Copy-14" transform="translate(0.000000, 430.000000)">
                    <path d="M15,0 L25,10 L25,26.5 C25,28.4329966 23.4329966,30 21.5,30 L3.5,30 C1.56700338,30 0,28.4329966 0,26.5 L0,3.5 C0,1.56700338 1.56700338,0 3.5,0 L15,0 Z" id="page" fill="url(#linearGradient-1)"></path>
                    <g id="curl" transform="translate(20.000000, 5.000000) scale(-1, -1) translate(-20.000000, -5.000000) ">
                        <use fill="black" fill-opacity="1" filter="url(#filter-3)" xlink:href="#path-2"></use>
                        <use fill="#393C44" fill-rule="evenodd" xlink:href="#path-2"></use>
                    </g>
                    <g id="File-Icon-Contents" transform="translate(5.000000, 7.000000)" fill="#FFFFFF" fill-rule="nonzero">
                        <g id="Virtru-icons/24/Encrypted-solid-24" transform="translate(0.700000, 0.000000)">
                            <path d="M3.67998211,4.54065302 L3.67998211,3.96467029 C3.67998211,2.0400112 4.96011757,0.560069469 6.80728341,0.560069469 C8.65271315,0.560069469 9.91863304,2.03683618 9.91863304,3.96467029 L9.91863304,4.54065302 L10.7321586,4.54065302 C11.5375738,4.54065302 12.1904919,5.19357109 12.1904919,5.99898635 L12.1904919,11.5927083 C12.1904919,12.3981236 11.5375738,13.0510416 10.7321586,13.0510416 L2.87895256,13.0510416 C2.0735373,13.0510416 1.42061922,12.3981236 1.42061922,11.5927083 L1.42061922,5.99898635 C1.42061922,5.19357109 2.0735373,4.54065302 2.87895256,4.54065302 L3.67998211,4.54065302 Z M4.81424137,4.54065302 L8.78437378,4.54065302 L8.78437378,3.96467029 C8.78437378,2.6278158 7.98416625,1.69432873 6.80728341,1.69432873 C5.62605132,1.69432873 4.81424137,2.63284771 4.81424137,3.96467029 L4.81424137,4.54065302 Z M7.68788525,7.2958383 C7.68788525,8.44251972 6.94392555,9.01525856 6.38747088,9.28327096 L6.38747088,9.25763133 L6.38747088,6.89764156 L5.39007637,6.89764156 L5.39007637,10.5715722 L5.98521965,10.4562541 C6.91919423,10.2752118 8.68534097,9.38179697 8.68534097,7.2958383 C8.68534097,7.02511748 8.46208572,6.80555556 8.18661311,6.80555556 C7.91120171,6.80555556 7.68788525,7.02511748 7.68788525,7.2958383 Z" id="icon"></path>
                        </g>
                        <path d="M2.45214844,17.7324219 L2.75097656,17.7324219 C3.03027483,17.7324219 3.23925712,17.6772466 3.37792969,17.5668945 C3.51660226,17.4565424 3.5859375,17.2958995 3.5859375,17.0849609 C3.5859375,16.8720692 3.52783261,16.7148443 3.41162109,16.6132812 C3.29540958,16.5117182 3.11328249,16.4609375 2.86523438,16.4609375 L2.45214844,16.4609375 L2.45214844,17.7324219 Z M4.50292969,17.0527344 C4.50292969,17.5136742 4.35888816,17.8662097 4.07080078,18.1103516 C3.7827134,18.3544934 3.37304953,18.4765625 2.84179688,18.4765625 L2.45214844,18.4765625 L2.45214844,20 L1.54394531,20 L1.54394531,15.7167969 L2.91210938,15.7167969 C3.43164322,15.7167969 3.8266588,15.8286122 4.09716797,16.0522461 C4.36767713,16.27588 4.50292969,16.6093728 4.50292969,17.0527344 Z M9.11132812,20 L7.95703125,20 L6.09375,16.7597656 L6.06738281,16.7597656 C6.10449237,17.3320341 6.12304688,17.7402332 6.12304688,17.984375 L6.12304688,20 L5.31152344,20 L5.31152344,15.7167969 L6.45703125,15.7167969 L8.31738281,18.9248047 L8.33789062,18.9248047 C8.3085936,18.3681613 8.29394531,17.9746105 8.29394531,17.7441406 L8.29394531,15.7167969 L9.11132812,15.7167969 L9.11132812,20 Z M11.8154297,17.5947266 L13.5146484,17.5947266 L13.5146484,19.8154297 C13.2392564,19.9052739 12.9799817,19.9682615 12.7368164,20.0043945 C12.4936511,20.0405275 12.2451185,20.0585938 11.9912109,20.0585938 C11.3447233,20.0585938 10.8510759,19.8686542 10.5102539,19.4887695 C10.1694319,19.1088848 9.99902344,18.5634801 9.99902344,17.8525391 C9.99902344,17.1611294 10.1967754,16.6220722 10.5922852,16.2353516 C10.9877949,15.8486309 11.5361293,15.6552734 12.2373047,15.6552734 C12.67676,15.6552734 13.1005839,15.7431632 13.5087891,15.9189453 L13.2070312,16.6455078 C12.8945297,16.489257 12.5693376,16.4111328 12.2314453,16.4111328 C11.8388652,16.4111328 11.5244152,16.5429674 11.2880859,16.8066406 C11.0517566,17.0703138 10.9335938,17.4248025 10.9335938,17.8701172 C10.9335938,18.3349633 11.0288076,18.6899402 11.2192383,18.9350586 C11.4096689,19.180177 11.6865216,19.3027344 12.0498047,19.3027344 C12.2392588,19.3027344 12.4316396,19.2832033 12.6269531,19.2441406 L12.6269531,18.3505859 L11.8154297,18.3505859 L11.8154297,17.5947266 Z" id="PNG"></path>
                    </g>
                </g>
            </g>
        </g>
    </g>
</svg>