<?xml version="1.0" encoding="UTF-8"?>
<svg width="12px" height="12px" fill="#B0B3B8" viewBox="0 0 12 12" version="1.1" xmlns="http://www.w3.org/2000/svg" xmlns:xlink="http://www.w3.org/1999/xlink">
    <!-- Generator: Sketch 49.3 (51167) - http://www.bohemiancoding.com/sketch -->
    <title>Icon Hint</title>
    <desc>Created with Sketch.</desc>
    <defs>
        <path d="M5.15,7.25 C5.13503421,6.9427234 5.1861859,6.63581329 5.3,6.35 C5.42522618,6.09018543 5.61449617,5.86650271 5.85,5.7 L6.1,5.5 L6.35,5.3 L6.5,5.1 C6.53798952,5.02238729 6.5552162,4.93625385 6.55,4.85 C6.55621731,4.66532903 6.46008072,4.49228317 6.3,4.4 C6.13510414,4.29769413 5.94400403,4.24557592 5.75,4.25 L5.5,4.25 L5.15,4.4 L4.85,4.6 L4.65,4.8 L3.85,3.95 L4.15,3.65 L4.6,3.35 L5.2,3.1 L6,3 L6.8,3.1 C7.03746607,3.17304703 7.25830052,3.29195789 7.45,3.45 C7.62120553,3.60255132 7.75761991,3.79012109 7.85,4 C7.95062601,4.21954397 8.00183108,4.45850094 8,4.7 C8.00679334,4.86818467 7.98996272,5.03649093 7.95,5.2 L7.8,5.55 L7.55,5.85 L7.25,6.1 L6.95,6.35 L6.7,6.6 L6.55,6.85 C6.51157949,6.9625102 6.49461917,7.08123246 6.5,7.2 L6.5,7.3 L5.15,7.3 L5.15,7.25 Z M5.05,7.95 L6.5,7.95 L6.5,9.4 L5.05,9.4 L5.05,7.95 Z M2.43750002,0.000156273811 C2.71355609,-0.00674727207 2.94294018,0.211443957 2.94984373,0.487500024 C2.95674727,0.763556092 2.73855604,0.99294018 2.46249998,0.999843726 C1.64875364,1.02019371 0.999745562,1.68584301 1,2.5 L0.999999976,9.50015627 C0.999745562,10.314157 1.64875364,10.9798063 2.46249998,11.0001563 C2.73855604,11.0070598 2.95674727,11.2364439 2.94984373,11.5125 C2.94294018,11.788556 2.71355609,12.0067473 2.43750002,11.9998437 C1.08125612,11.9659271 -0.000423998912,10.8565116 -1.85612995e-14,9.5 L2.4421486e-08,2.50015627 C-0.000423998912,1.14348842 1.08125612,0.0340729056 2.43750002,0.000156273811 Z M9.56249998,11.9998437 C9.28644391,12.0067473 9.05705982,11.788556 9.05015627,11.5125 C9.04325273,11.2364439 9.26144396,11.0070598 9.53750002,11.0001563 C10.3512464,10.9798063 11.0002544,10.314157 11,9.5 L11,2.49984373 C11.0002544,1.68584301 10.3512464,1.02019371 9.53750002,0.999843726 C9.26144396,0.99294018 9.04325273,0.763556092 9.05015627,0.487500024 C9.05705982,0.211443957 9.28644391,-0.00674727207 9.56249998,0.000156273811 C10.9187439,0.0340729056 12.000424,1.14348842 12,2.5 L12,9.49984373 C12.000424,10.8565116 10.9187439,11.9659271 9.56249998,11.9998437 Z" id="path-1"></path>
    </defs>
    <g id="Read" stroke="none" stroke-width="1" fill-rule="evenodd">
        <g id="Read---Decrypted-with-CKS-indicator-step-2-Copy" transform="translate(-708.000000, -215.000000)">
            <g id="Group" transform="translate(563.000000, 212.000000)">
                <g id="Primitive/Icon/hint-bracket-24" transform="translate(145.000000, 3.000000)">
                    <mask id="mask-2">
                        <use xlink:href="#path-1"></use>
                    </mask>
                    <use id="Mask" fill-rule="nonzero" xlink:href="#path-1"></use>
                    <g id="Color/20-Grey" mask="url(#mask-2)" fill-rule="evenodd">
                        <rect id="Rectangle-2" x="0" y="0" width="12" height="12"></rect>
                    </g>
                </g>
            </g>
        </g>
    </g>
</svg>