<?xml version="1.0" encoding="UTF-8"?>
<svg width="24px" height="24px" viewBox="0 0 24 24" version="1.1" xmlns="http://www.w3.org/2000/svg" xmlns:xlink="http://www.w3.org/1999/xlink">
    <!-- Generator: Sketch 53.2 (72643) - https://sketchapp.com -->
    <title>Artboard</title>
    <desc>Created with Sketch.</desc>
    <g id="Artboard" stroke="none" stroke-width="1" fill="none" fill-rule="evenodd">
        <g id="Virtru-icons/24/Not-activated-24" fill="#FF8200" fill-rule="nonzero">
            <path d="M0,22.3404256 L12,1.65957444 L24,22.3404256 L0,22.3404256 Z M20.527203,20.3404256 L12,5.64460756 L3.47279699,20.3404256 L20.527203,20.3404256 Z M12,18.9812938 C11.3079718,18.9812938 10.7469721,18.4202941 10.7469721,17.7282659 C10.7469721,17.0362377 11.3079718,16.475238 12,16.475238 C12.6920282,16.475238 13.2530279,17.0362377 13.2530279,17.7282659 C13.2530279,18.4202941 12.6920282,18.9812938 12,18.9812938 Z M10.9975777,9.98315392 C10.9975777,9.42953137 11.4463775,8.98073162 12,8.98073162 C12.5536225,8.98073162 13.0024223,9.42953137 13.0024223,9.98315392 L13.0024223,14.0102191 C13.0024223,14.5638416 12.5536225,15.0126414 12,15.0126414 C11.4463775,15.0126414 10.9975777,14.5638416 10.9975777,14.0102191 L10.9975777,9.98315392 Z" id="triangle-exclaimation"></path>
        </g>
    </g>
</svg>