<?xml version="1.0" encoding="UTF-8"?>
<svg width="12px" height="12px" viewBox="0 0 12 12" version="1.1" xmlns="http://www.w3.org/2000/svg" xmlns:xlink="http://www.w3.org/1999/xlink">
    <!-- Generator: Sketch 53.2 (72643) - https://sketchapp.com -->
    <title>Artboard Copy 9</title>
    <desc>Created with Sketch.</desc>
    <g id="Artboard-Copy-9" stroke="none" stroke-width="1" fill="none" fill-rule="evenodd">
        <g id="Virtru-icons/12/Checkbox-checked-12" fill="#2D323B" fill-rule="nonzero">
            <path d="M5.63054566,8.21833739 L4.88808354,8.96079951 L4.40812085,8.48083683 C4.39200962,8.46780209 4.37642439,8.45379438 4.36144369,8.43881368 L4.17765826,8.25037424 L4.14562142,8.21833739 L2.87378845,6.91348644 C2.64313504,6.68283303 2.64313504,6.30886996 2.87378845,6.07821655 C3.10444186,5.84756314 3.47840493,5.84756314 3.70905834,6.07821655 L4.88911342,7.28815426 L8.29893116,3.87774891 C8.52958457,3.6470955 8.90354764,3.6470955 9.13420105,3.87774891 C9.36485446,4.10840232 9.36485446,4.48236539 9.13420105,4.7130188 L5.63001599,8.21780772 Z M2,0.5 L10,0.5 C10.8284271,0.5 11.5,1.17157288 11.5,2 L11.5,10 C11.5,10.8284271 10.8284271,11.5 10,11.5 L2,11.5 C1.17157288,11.5 0.5,10.8284271 0.5,10 L0.5,2 C0.5,1.17157288 1.17157288,0.5 2,0.5 Z M2,1.54761905 C1.7501569,1.54761905 1.54761905,1.7501569 1.54761905,2 L1.54761905,10 C1.54761905,10.2498431 1.7501569,10.452381 2,10.452381 L10,10.452381 C10.2498431,10.452381 10.452381,10.2498431 10.452381,10 L10.452381,2 C10.452381,1.7501569 10.2498431,1.54761905 10,1.54761905 L2,1.54761905 Z" id="box-and-check"></path>
        </g>
    </g>
</svg>