<?xml version="1.0" encoding="UTF-8"?>
<svg width="12px" height="12px" viewBox="0 0 12 12" version="1.1" xmlns="http://www.w3.org/2000/svg" xmlns:xlink="http://www.w3.org/1999/xlink">
    <!-- Generator: Sketch 53.2 (72643) - https://sketchapp.com -->
    <title>Artboard Copy 8</title>
    <desc>Created with Sketch.</desc>
    <g id="Artboard-Copy-8" stroke="none" stroke-width="1" fill="none" fill-rule="evenodd">
        <g id="Virtru-icons/12/Checkbox-unchecked-12" fill="#2D323B" fill-rule="nonzero">
            <path d="M2,0.5 L10,0.5 C10.8284271,0.5 11.5,1.17157288 11.5,2 L11.5,10 C11.5,10.8284271 10.8284271,11.5 10,11.5 L2,11.5 C1.17157288,11.5 0.5,10.8284271 0.5,10 L0.5,2 C0.5,1.17157288 1.17157288,0.5 2,0.5 Z M2,1.54761905 C1.7501569,1.54761905 1.54761905,1.7501569 1.54761905,2 L1.54761905,10 C1.54761905,10.2498431 1.7501569,10.452381 2,10.452381 L10,10.452381 C10.2498431,10.452381 10.452381,10.2498431 10.452381,10 L10.452381,2 C10.452381,1.7501569 10.2498431,1.54761905 10,1.54761905 L2,1.54761905 Z" id="box"></path>
        </g>
    </g>
</svg>