<svg xmlns="http://www.w3.org/2000/svg" viewBox="0 0 24 24"><title>key_24</title><g id="Layer_2" data-name="Layer 2"><g id="under_square" data-name="under square"><rect width="24" height="24" fill="none"/></g><g id="Layer_1-2" data-name="Layer 1"><path d="M7,5A2,2,0,1,0,9,7,2,2,0,0,0,7,5Z" fill="#004987"/><path d="M7.8,1A6.6,6.6,0,0,0,1,7.7a6.5,6.5,0,0,0,6.8,6.7l1.4-.4,2.1,2.1,2.1-.7.4.7-.4,2.1,1.1,1.1,2.1-.6.4.6-.4,2.1L18.1,23h4.3l.6-.4V18L14.3,9.5a5,5,0,0,0,.3-1.8A6.6,6.6,0,0,0,7.8,1Z" fill="none" stroke="#004987" stroke-linejoin="round" stroke-width="2"/></g></g></svg>