<?xml version="1.0" encoding="UTF-8"?>
<svg width="18px" height="18px" viewBox="0 0 18 18" version="1.1" xmlns="http://www.w3.org/2000/svg" xmlns:xlink="http://www.w3.org/1999/xlink">
    <!-- Generator: Sketch 53.2 (72643) - https://sketchapp.com -->
    <title>Artboard Copy 4</title>
    <desc>Created with Sketch.</desc>
    <g id="Artboard-Copy-4" stroke="none" stroke-width="1" fill="none" fill-rule="evenodd">
        <g id="Virtru-icons/18/Persistent-protection-18" fill="#2D323B" fill-rule="nonzero">
            <path d="M8.88108144,1.55466489 L2.69387165,1.55466489 C2.61595643,1.55466489 2.54695582,1.62414467 2.54695552,1.71110304 L2.53840516,15.3911824 C2.53840516,15.4771691 2.60740577,15.5466489 2.68532099,15.5466489 L9.19394813,15.5466489 L9.19394813,17.1013138 L2.68532099,17.1013138 C1.74474874,17.1013138 0.983740276,16.3317546 0.983740276,15.3911824 L0.992290933,1.71013138 C0.992290933,0.769559119 1.75329939,0 2.69387165,0 L9.53439716,0 L14.6647913,5.13039413 L14.6647913,8.22625074 C14.4507432,8.1859214 14.1987863,8.16480857 13.9040117,8.16480857 C13.6225208,8.1654144 13.3578923,8.18442507 13.1101264,8.22184057 L13.1101264,5.80154082 L8.88108144,5.80154082 L8.88108144,1.55466489 Z M16.2356764,12.5359164 C16.6649972,12.5359164 17.0162597,12.8871789 17.0162597,13.3164998 L17.0162597,17.2194166 C17.0162597,17.6487375 16.6649972,18 16.2356764,18 L11.5521761,18 C11.1228553,18 10.7715928,17.6487375 10.7715928,17.2194166 L10.7715928,13.3164998 C10.7715928,12.8871789 11.1228553,12.5359164 11.5521761,12.5359164 L15.1038305,12.5359164 L15.1038305,11.755333 C15.1038305,11.0879343 14.561325,10.5454288 13.8939262,10.5454288 C13.2265275,10.5454288 12.684022,11.0879343 12.684022,11.755333 C12.6796712,12.4649543 12.6829141,12.8197649 12.6937507,12.8197649 C12.7540175,12.8197649 12.3745991,13.018868 11.9467774,12.8283537 C11.9445598,12.8273661 11.9431233,12.4696926 11.9424678,11.755333 C11.9424678,10.678128 12.8167212,9.80387462 13.8939262,9.80387462 C14.9711313,9.80387462 15.8453847,10.678128 15.8453847,11.755333 L15.8453847,12.5359164 L16.2356764,12.5359164 Z M15.3699384,14.0931802 C15.3699384,13.8590052 15.1783407,13.6713104 14.9477138,13.6713104 C14.7135388,13.6713104 14.5254892,13.8590052 14.5254892,14.0931802 C14.5254892,14.9624663 14.0216581,15.4521049 13.5958853,15.7114715 L13.4610573,15.789175 L13.4610573,13.7883979 L12.616608,13.7883979 L12.616608,16.9174728 L12.6343485,16.9139247 C12.7869171,16.8961842 13.0281883,16.8358663 13.1062467,16.8181258 C13.116891,16.8145777 13.1239872,16.8110296 13.1310834,16.8110296 C13.3652584,16.7507118 15.3699384,16.1723705 15.3699384,14.0931802 Z" id="page-locked"></path>
        </g>
    </g>
</svg>