<?xml version="1.0" encoding="UTF-8"?>
<svg id="Layer_1" xmlns="http://www.w3.org/2000/svg" viewBox="0 0 4.51 1177.34">
    <defs>
        <style>.cls-1{fill:#004987;}</style>
    </defs>
    <polygon class="cls-1" points="0 4.51 0 7.34 4.51 2.83 4.51 0 0 4.51" />
    <polygon class="cls-1" points="0 13.34 4.51 8.83 4.51 6 0 10.51 0 13.34" />
    <polygon class="cls-1" points="0 19.34 4.51 14.83 4.51 12 0 16.51 0 19.34" />
    <polygon class="cls-1" points="0 25.34 4.51 20.83 4.51 18 0 22.51 0 25.34" />
    <polygon class="cls-1" points="0 31.34 4.51 26.83 4.51 24 0 28.51 0 31.34" />
    <polygon class="cls-1" points="0 37.34 4.51 32.83 4.51 30 0 34.51 0 37.34" />
    <polygon class="cls-1" points="0 43.34 4.51 38.83 4.51 36 0 40.51 0 43.34" />
    <polygon class="cls-1" points="0 49.34 4.51 44.83 4.51 42 0 46.51 0 49.34" />
    <polygon class="cls-1" points="0 55.34 4.51 50.83 4.51 48 0 52.51 0 55.34" />
    <polygon class="cls-1" points="0 61.34 4.51 56.83 4.51 54 0 58.51 0 61.34" />
    <polygon class="cls-1" points="0 67.34 4.51 62.83 4.51 60 0 64.51 0 67.34" />
    <polygon class="cls-1" points="0 73.34 4.51 68.83 4.51 66 0 70.51 0 73.34" />
    <polygon class="cls-1" points="0 79.34 4.51 74.83 4.51 72 0 76.51 0 79.34" />
    <polygon class="cls-1" points="0 85.34 4.51 80.83 4.51 78 0 82.51 0 85.34" />
    <polygon class="cls-1" points="0 91.34 4.51 86.83 4.51 84 0 88.51 0 91.34" />
    <polygon class="cls-1" points="0 97.34 4.51 92.83 4.51 90 0 94.51 0 97.34" />
    <polygon class="cls-1" points="0 103.34 4.51 98.83 4.51 96 0 100.51 0 103.34" />
    <polygon class="cls-1" points="0 109.34 4.51 104.83 4.51 102 0 106.51 0 109.34" />
    <polygon class="cls-1" points="0 115.34 4.51 110.83 4.51 108 0 112.51 0 115.34" />
    <polygon class="cls-1" points="0 121.34 4.51 116.83 4.51 114 0 118.51 0 121.34" />
    <polygon class="cls-1" points="0 127.34 4.51 122.83 4.51 120 0 124.51 0 127.34" />
    <polygon class="cls-1" points="0 133.34 4.51 128.83 4.51 126 0 130.51 0 133.34" />
    <polygon class="cls-1" points="0 139.34 4.51 134.83 4.51 132 0 136.51 0 139.34" />
    <polygon class="cls-1" points="0 145.34 4.51 140.83 4.51 138 0 142.51 0 145.34" />
    <polygon class="cls-1" points="0 151.34 4.51 146.83 4.51 144 0 148.51 0 151.34" />
    <polygon class="cls-1" points="0 157.34 4.51 152.83 4.51 150 0 154.51 0 157.34" />
    <polygon class="cls-1" points="0 163.34 4.51 158.83 4.51 156 0 160.51 0 163.34" />
    <polygon class="cls-1" points="0 169.34 4.51 164.83 4.51 162 0 166.51 0 169.34" />
    <polygon class="cls-1" points="0 175.34 4.51 170.83 4.51 168 0 172.51 0 175.34" />
    <polygon class="cls-1" points="0 181.34 4.51 176.83 4.51 174 0 178.51 0 181.34" />
    <polygon class="cls-1" points="0 187.34 4.51 182.83 4.51 180 0 184.51 0 187.34" />
    <polygon class="cls-1" points="0 193.34 4.51 188.83 4.51 186 0 190.51 0 193.34" />
    <polygon class="cls-1" points="0 199.34 4.51 194.83 4.51 192 0 196.51 0 199.34" />
    <polygon class="cls-1" points="0 205.34 4.51 200.83 4.51 198 0 202.51 0 205.34" />
    <polygon class="cls-1" points="0 211.34 4.51 206.83 4.51 204 0 208.51 0 211.34" />
    <polygon class="cls-1" points="0 217.34 4.51 212.83 4.51 210 0 214.51 0 217.34" />
    <polygon class="cls-1" points="0 223.34 4.51 218.83 4.51 216 0 220.51 0 223.34" />
    <polygon class="cls-1" points="0 229.34 4.51 224.83 4.51 222 0 226.51 0 229.34" />
    <polygon class="cls-1" points="0 235.34 4.51 230.83 4.51 228 0 232.51 0 235.34" />
    <polygon class="cls-1" points="0 241.34 4.51 236.83 4.51 234 0 238.51 0 241.34" />
    <polygon class="cls-1" points="0 247.34 4.51 242.83 4.51 240 0 244.51 0 247.34" />
    <polygon class="cls-1" points="0 253.34 4.51 248.83 4.51 246 0 250.51 0 253.34" />
    <polygon class="cls-1" points="0 259.34 4.51 254.83 4.51 252 0 256.51 0 259.34" />
    <polygon class="cls-1" points="0 265.34 4.51 260.83 4.51 258 0 262.51 0 265.34" />
    <polygon class="cls-1" points="0 271.34 4.51 266.83 4.51 264 0 268.51 0 271.34" />
    <polygon class="cls-1" points="0 277.34 4.51 272.83 4.51 270 0 274.51 0 277.34" />
    <polygon class="cls-1" points="0 283.34 4.51 278.83 4.51 276 0 280.51 0 283.34" />
    <polygon class="cls-1" points="0 289.34 4.51 284.83 4.51 282 0 286.51 0 289.34" />
    <polygon class="cls-1" points="0 295.34 4.51 290.83 4.51 288 0 292.51 0 295.34" />
    <polygon class="cls-1" points="0 301.34 4.51 296.83 4.51 294 0 298.51 0 301.34" />
    <polygon class="cls-1" points="0 307.34 4.51 302.83 4.51 300 0 304.51 0 307.34" />
    <polygon class="cls-1" points="0 313.34 4.51 308.83 4.51 306 0 310.51 0 313.34" />
    <polygon class="cls-1" points="0 319.34 4.51 314.83 4.51 312 0 316.51 0 319.34" />
    <polygon class="cls-1" points="0 325.34 4.51 320.83 4.51 318 0 322.51 0 325.34" />
    <polygon class="cls-1" points="0 331.34 4.51 326.83 4.51 324 0 328.51 0 331.34" />
    <polygon class="cls-1" points="0 337.34 4.51 332.83 4.51 330 0 334.51 0 337.34" />
    <polygon class="cls-1" points="0 343.34 4.51 338.83 4.51 336 0 340.51 0 343.34" />
    <polygon class="cls-1" points="0 349.34 4.51 344.83 4.51 342 0 346.51 0 349.34" />
    <polygon class="cls-1" points="0 355.34 4.51 350.83 4.51 348 0 352.51 0 355.34" />
    <polygon class="cls-1" points="0 361.34 4.51 356.83 4.51 354 0 358.51 0 361.34" />
    <polygon class="cls-1" points="0 367.34 4.51 362.83 4.51 360 0 364.51 0 367.34" />
    <polygon class="cls-1" points="0 373.34 4.51 368.83 4.51 366 0 370.51 0 373.34" />
    <polygon class="cls-1" points="0 379.34 4.51 374.83 4.51 372 0 376.51 0 379.34" />
    <polygon class="cls-1" points="0 385.34 4.51 380.83 4.51 378 0 382.51 0 385.34" />
    <polygon class="cls-1" points="0 391.34 4.51 386.83 4.51 384 0 388.51 0 391.34" />
    <polygon class="cls-1" points="0 397.34 4.51 392.83 4.51 390 0 394.51 0 397.34" />
    <polygon class="cls-1" points="0 403.34 4.51 398.83 4.51 396 0 400.51 0 403.34" />
    <polygon class="cls-1" points="0 409.34 4.51 404.83 4.51 402 0 406.51 0 409.34" />
    <polygon class="cls-1" points="0 415.34 4.51 410.83 4.51 408 0 412.51 0 415.34" />
    <polygon class="cls-1" points="0 421.34 4.51 416.83 4.51 414 0 418.51 0 421.34" />
    <polygon class="cls-1" points="0 427.34 4.51 422.83 4.51 420 0 424.51 0 427.34" />
    <polygon class="cls-1" points="0 433.34 4.51 428.83 4.51 426 0 430.51 0 433.34" />
    <polygon class="cls-1" points="0 439.34 4.51 434.83 4.51 432 0 436.51 0 439.34" />
    <polygon class="cls-1" points="0 445.34 4.51 440.83 4.51 438 0 442.51 0 445.34" />
    <polygon class="cls-1" points="0 451.34 4.51 446.83 4.51 444 0 448.51 0 451.34" />
    <polygon class="cls-1" points="0 457.34 4.51 452.83 4.51 450 0 454.51 0 457.34" />
    <polygon class="cls-1" points="0 463.34 4.51 458.83 4.51 456 0 460.51 0 463.34" />
    <polygon class="cls-1" points="0 469.34 4.51 464.83 4.51 462 0 466.51 0 469.34" />
    <polygon class="cls-1" points="0 475.34 4.51 470.83 4.51 468 0 472.51 0 475.34" />
    <polygon class="cls-1" points="0 481.34 4.51 476.83 4.51 474 0 478.51 0 481.34" />
    <polygon class="cls-1" points="0 487.34 4.51 482.83 4.51 480 0 484.51 0 487.34" />
    <polygon class="cls-1" points="0 493.34 4.51 488.83 4.51 486 0 490.51 0 493.34" />
    <polygon class="cls-1" points="0 499.34 4.51 494.83 4.51 492 0 496.51 0 499.34" />
    <polygon class="cls-1" points="0 505.34 4.51 500.83 4.51 498 0 502.51 0 505.34" />
    <polygon class="cls-1" points="0 511.34 4.51 506.83 4.51 504 0 508.51 0 511.34" />
    <polygon class="cls-1" points="0 517.34 4.51 512.83 4.51 510 0 514.51 0 517.34" />
    <polygon class="cls-1" points="0 523.34 4.51 518.83 4.51 516 0 520.51 0 523.34" />
    <polygon class="cls-1" points="0 529.34 4.51 524.83 4.51 522 0 526.51 0 529.34" />
    <polygon class="cls-1" points="0 535.34 4.51 530.83 4.51 528 0 532.51 0 535.34" />
    <polygon class="cls-1" points="0 541.34 4.51 536.83 4.51 534 0 538.51 0 541.34" />
    <polygon class="cls-1" points="0 547.34 4.51 542.83 4.51 540 0 544.51 0 547.34" />
    <polygon class="cls-1" points="0 553.34 4.51 548.83 4.51 546 0 550.51 0 553.34" />
    <polygon class="cls-1" points="0 559.34 4.51 554.83 4.51 552 0 556.51 0 559.34" />
    <polygon class="cls-1" points="0 565.34 4.51 560.83 4.51 558 0 562.51 0 565.34" />
    <polygon class="cls-1" points="0 571.34 4.51 566.83 4.51 564 0 568.51 0 571.34" />
    <polygon class="cls-1" points="0 577.34 4.51 572.83 4.51 570 0 574.51 0 577.34" />
    <polygon class="cls-1" points="0 583.34 4.51 578.83 4.51 576 0 580.51 0 583.34" />
    <polygon class="cls-1" points="0 589.34 4.51 584.83 4.51 582 0 586.51 0 589.34" />
    <polygon class="cls-1" points="0 595.34 4.51 590.83 4.51 588 0 592.51 0 595.34" />
    <polygon class="cls-1" points="0 601.34 4.51 596.83 4.51 594 0 598.51 0 601.34" />
    <polygon class="cls-1" points="0 607.34 4.51 602.83 4.51 600 0 604.51 0 607.34" />
    <polygon class="cls-1" points="0 613.34 4.51 608.83 4.51 606 0 610.51 0 613.34" />
    <polygon class="cls-1" points="0 619.34 4.51 614.83 4.51 612 0 616.51 0 619.34" />
    <polygon class="cls-1" points="0 625.34 4.51 620.83 4.51 618 0 622.51 0 625.34" />
    <polygon class="cls-1" points="0 631.34 4.51 626.83 4.51 624 0 628.51 0 631.34" />
    <polygon class="cls-1" points="0 637.34 4.51 632.83 4.51 630 0 634.51 0 637.34" />
    <polygon class="cls-1" points="0 643.34 4.51 638.83 4.51 636 0 640.51 0 643.34" />
    <polygon class="cls-1" points="0 649.34 4.51 644.83 4.51 642 0 646.51 0 649.34" />
    <polygon class="cls-1" points="0 655.34 4.51 650.83 4.51 648 0 652.51 0 655.34" />
    <polygon class="cls-1" points="0 661.34 4.51 656.83 4.51 654 0 658.51 0 661.34" />
    <polygon class="cls-1" points="0 667.34 4.51 662.83 4.51 660 0 664.51 0 667.34" />
    <polygon class="cls-1" points="0 673.34 4.51 668.83 4.51 666 0 670.51 0 673.34" />
    <polygon class="cls-1" points="0 679.34 4.51 674.83 4.51 672 0 676.51 0 679.34" />
    <polygon class="cls-1" points="0 685.34 4.51 680.83 4.51 678 0 682.51 0 685.34" />
    <polygon class="cls-1" points="0 691.34 4.51 686.83 4.51 684 0 688.51 0 691.34" />
    <polygon class="cls-1" points="0 697.34 4.51 692.83 4.51 690 0 694.51 0 697.34" />
    <polygon class="cls-1" points="0 703.34 4.51 698.83 4.51 696 0 700.51 0 703.34" />
    <polygon class="cls-1" points="0 709.34 4.51 704.83 4.51 702 0 706.51 0 709.34" />
    <polygon class="cls-1" points="0 715.34 4.51 710.83 4.51 708 0 712.51 0 715.34" />
    <polygon class="cls-1" points="0 721.34 4.51 716.83 4.51 714 0 718.51 0 721.34" />
    <polygon class="cls-1" points="0 727.34 4.51 722.83 4.51 720 0 724.51 0 727.34" />
    <polygon class="cls-1" points="0 733.34 4.51 728.83 4.51 726 0 730.51 0 733.34" />
    <polygon class="cls-1" points="0 739.34 4.51 734.83 4.51 732 0 736.51 0 739.34" />
    <polygon class="cls-1" points="0 745.34 4.51 740.83 4.51 738 0 742.51 0 745.34" />
    <polygon class="cls-1" points="0 751.34 4.51 746.83 4.51 744 0 748.51 0 751.34" />
    <polygon class="cls-1" points="0 757.34 4.51 752.83 4.51 750 0 754.51 0 757.34" />
    <polygon class="cls-1" points="0 763.34 4.51 758.83 4.51 756 0 760.51 0 763.34" />
    <polygon class="cls-1" points="0 769.34 4.51 764.83 4.51 762 0 766.51 0 769.34" />
    <polygon class="cls-1" points="0 775.34 4.51 770.83 4.51 768 0 772.51 0 775.34" />
    <polygon class="cls-1" points="0 781.34 4.51 776.83 4.51 774 0 778.51 0 781.34" />
    <polygon class="cls-1" points="0 787.34 4.51 782.83 4.51 780 0 784.51 0 787.34" />
    <polygon class="cls-1" points="0 793.34 4.51 788.83 4.51 786 0 790.51 0 793.34" />
    <polygon class="cls-1" points="0 799.34 4.51 794.83 4.51 792 0 796.51 0 799.34" />
    <polygon class="cls-1" points="0 805.34 4.51 800.83 4.51 798 0 802.51 0 805.34" />
    <polygon class="cls-1" points="0 811.34 4.51 806.83 4.51 804 0 808.51 0 811.34" />
    <polygon class="cls-1" points="0 817.34 4.51 812.83 4.51 810 0 814.51 0 817.34" />
    <polygon class="cls-1" points="0 823.34 4.51 818.83 4.51 816 0 820.51 0 823.34" />
    <polygon class="cls-1" points="0 829.34 4.51 824.83 4.51 822 0 826.51 0 829.34" />
    <polygon class="cls-1" points="0 835.34 4.51 830.83 4.51 828 0 832.51 0 835.34" />
    <polygon class="cls-1" points="0 841.34 4.51 836.83 4.51 834 0 838.51 0 841.34" />
    <polygon class="cls-1" points="0 847.34 4.51 842.83 4.51 840 0 844.51 0 847.34" />
    <polygon class="cls-1" points="0 853.34 4.51 848.83 4.51 846 0 850.51 0 853.34" />
    <polygon class="cls-1" points="0 859.34 4.51 854.83 4.51 852 0 856.51 0 859.34" />
    <polygon class="cls-1" points="0 865.34 4.51 860.83 4.51 858 0 862.51 0 865.34" />
    <polygon class="cls-1" points="0 871.34 4.51 866.83 4.51 864 0 868.51 0 871.34" />
    <polygon class="cls-1" points="0 877.34 4.51 872.83 4.51 870 0 874.51 0 877.34" />
    <polygon class="cls-1" points="0 883.34 4.51 878.83 4.51 876 0 880.51 0 883.34" />
    <polygon class="cls-1" points="0 889.34 4.51 884.83 4.51 882 0 886.51 0 889.34" />
    <polygon class="cls-1" points="0 895.34 4.51 890.83 4.51 888 0 892.51 0 895.34" />
    <polygon class="cls-1" points="0 901.34 4.51 896.83 4.51 894 0 898.51 0 901.34" />
    <polygon class="cls-1" points="0 907.34 4.51 902.83 4.51 900 0 904.51 0 907.34" />
    <polygon class="cls-1" points="0 913.34 4.51 908.83 4.51 906 0 910.51 0 913.34" />
    <polygon class="cls-1" points="0 919.34 4.51 914.83 4.51 912 0 916.51 0 919.34" />
    <polygon class="cls-1" points="0 925.34 4.51 920.83 4.51 918 0 922.51 0 925.34" />
    <polygon class="cls-1" points="0 931.34 4.51 926.83 4.51 924 0 928.51 0 931.34" />
    <polygon class="cls-1" points="0 937.34 4.51 932.83 4.51 930 0 934.51 0 937.34" />
    <polygon class="cls-1" points="0 943.34 4.51 938.83 4.51 936 0 940.51 0 943.34" />
    <polygon class="cls-1" points="0 949.34 4.51 944.83 4.51 942 0 946.51 0 949.34" />
    <polygon class="cls-1" points="0 955.34 4.51 950.83 4.51 948 0 952.51 0 955.34" />
    <polygon class="cls-1" points="0 961.34 4.51 956.83 4.51 954 0 958.51 0 961.34" />
    <polygon class="cls-1" points="0 967.34 4.51 962.83 4.51 960 0 964.51 0 967.34" />
    <polygon class="cls-1" points="0 973.34 4.51 968.83 4.51 966 0 970.51 0 973.34" />
    <polygon class="cls-1" points="0 979.34 4.51 974.83 4.51 972 0 976.51 0 979.34" />
    <polygon class="cls-1" points="0 985.34 4.51 980.83 4.51 978 0 982.51 0 985.34" />
    <polygon class="cls-1" points="0 991.34 4.51 986.83 4.51 984 0 988.51 0 991.34" />
    <polygon class="cls-1" points="0 997.34 4.51 992.83 4.51 990 0 994.51 0 997.34" />
    <polygon class="cls-1" points="0 1003.34 4.51 998.83 4.51 996 0 1000.51 0 1003.34" />
    <polygon class="cls-1" points="0 1009.34 4.51 1004.83 4.51 1002 0 1006.51 0 1009.34" />
    <polygon class="cls-1" points="0 1015.34 4.51 1010.83 4.51 1008 0 1012.51 0 1015.34" />
    <polygon class="cls-1" points="0 1021.34 4.51 1016.83 4.51 1014 0 1018.51 0 1021.34" />
    <polygon class="cls-1" points="0 1027.34 4.51 1022.83 4.51 1020 0 1024.51 0 1027.34" />
    <polygon class="cls-1" points="0 1033.34 4.51 1028.83 4.51 1026 0 1030.51 0 1033.34" />
    <polygon class="cls-1" points="0 1039.34 4.51 1034.83 4.51 1032 0 1036.51 0 1039.34" />
    <polygon class="cls-1" points="0 1045.34 4.51 1040.83 4.51 1038 0 1042.51 0 1045.34" />
    <polygon class="cls-1" points="0 1051.34 4.51 1046.83 4.51 1044 0 1048.51 0 1051.34" />
    <polygon class="cls-1" points="0 1057.34 4.51 1052.83 4.51 1050 0 1054.51 0 1057.34" />
    <polygon class="cls-1" points="0 1063.34 4.51 1058.83 4.51 1056 0 1060.51 0 1063.34" />
    <polygon class="cls-1" points="0 1069.34 4.51 1064.83 4.51 1062 0 1066.51 0 1069.34" />
    <polygon class="cls-1" points="0 1075.34 4.51 1070.83 4.51 1068 0 1072.51 0 1075.34" />
    <polygon class="cls-1" points="0 1081.34 4.51 1076.83 4.51 1074 0 1078.51 0 1081.34" />
    <polygon class="cls-1" points="0 1087.34 4.51 1082.83 4.51 1080 0 1084.51 0 1087.34" />
    <polygon class="cls-1" points="0 1093.34 4.51 1088.83 4.51 1086 0 1090.51 0 1093.34" />
    <polygon class="cls-1" points="0 1099.34 4.51 1094.83 4.51 1092 0 1096.51 0 1099.34" />
    <polygon class="cls-1" points="0 1105.34 4.51 1100.83 4.51 1098 0 1102.51 0 1105.34" />
    <polygon class="cls-1" points="0 1111.34 4.51 1106.83 4.51 1104 0 1108.51 0 1111.34" />
    <polygon class="cls-1" points="0 1117.34 4.51 1112.83 4.51 1110 0 1114.51 0 1117.34" />
    <polygon class="cls-1" points="0 1123.34 4.51 1118.83 4.51 1116 0 1120.51 0 1123.34" />
    <polygon class="cls-1" points="0 1129.34 4.51 1124.83 4.51 1122 0 1126.51 0 1129.34" />
    <polygon class="cls-1" points="0 1135.34 4.51 1130.83 4.51 1128 0 1132.51 0 1135.34" />
    <polygon class="cls-1" points="0 1141.34 4.51 1136.83 4.51 1134 0 1138.51 0 1141.34" />
    <polygon class="cls-1" points="0 1147.34 4.51 1142.83 4.51 1140 0 1144.51 0 1147.34" />
    <polygon class="cls-1" points="0 1153.34 4.51 1148.83 4.51 1146 0 1150.51 0 1153.34" />
    <polygon class="cls-1" points="0 1159.34 4.51 1154.83 4.51 1152 0 1156.51 0 1159.34" />
    <polygon class="cls-1" points="0 1165.34 4.51 1160.83 4.51 1158 0 1162.51 0 1165.34" />
    <polygon class="cls-1" points="0 1171.34 4.51 1166.83 4.51 1164 0 1168.51 0 1171.34" />
    <polygon class="cls-1" points="0 1177.34 4.51 1172.83 4.51 1170 0 1174.51 0 1177.34" />
</svg>