<svg width="82" height="83" viewBox="0 0 82 83" fill="none" xmlns="http://www.w3.org/2000/svg">
  <path d="M75.5167 82.375L46.9042 53.7625C44.6333 55.5792 42.0219 57.0174 39.0698 58.0771C36.1177 59.1368 32.9764 59.6667 29.6458 59.6667C21.3951 59.6667 14.4123 56.8092 8.6974 51.0943C2.98247 45.3793 0.125 38.3965 0.125 30.1458C0.125 21.8951 2.98247 14.9123 8.6974 9.1974C14.4123 3.48247 21.3951 0.625 29.6458 0.625C37.8965 0.625 44.8793 3.48247 50.5943 9.1974C56.3092 14.9123 59.1667 21.8951 59.1667 30.1458C59.1667 33.4764 58.6368 36.6177 57.5771 39.5698C56.5174 42.5219 55.0792 45.1333 53.2625 47.4042L81.875 76.0167L75.5167 82.375ZM29.6458 50.5833C35.3229 50.5833 40.1484 48.5964 44.1224 44.6224C48.0964 40.6484 50.0833 35.8229 50.0833 30.1458C50.0833 24.4688 48.0964 19.6432 44.1224 15.6693C40.1484 11.6953 35.3229 9.70833 29.6458 9.70833C23.9688 9.70833 19.1432 11.6953 15.1693 15.6693C11.1953 19.6432 9.20833 24.4688 9.20833 30.1458C9.20833 35.8229 11.1953 40.6484 15.1693 44.6224C19.1432 48.5964 23.9688 50.5833 29.6458 50.5833Z" fill="#004987"/>
</svg>
