<?xml version="1.0" encoding="UTF-8"?>
<svg width="175px" height="153px" viewBox="0 0 175 153" version="1.1" xmlns="http://www.w3.org/2000/svg" xmlns:xlink="http://www.w3.org/1999/xlink">
    <!-- Generator: Sketch 63.1 (92452) - https://sketch.com -->
    <title>Illustration/FR/trans/activation-amin</title>
    <desc>Created with Sketch.</desc>
    <g id="Page-1" stroke="none" stroke-width="1" fill="none" fill-rule="evenodd">
        <g id="Error-Compose" transform="translate(-854.000000, -446.000000)">
            <g id="Group-2" transform="translate(707.000000, 446.000000)">
                <g id="Illustration/FR/trans/activation-amin" transform="translate(141.000000, 0.000000)">
                    <g>
                        <rect id="Background" fill-opacity="0" fill="#FFFFFF" fill-rule="nonzero" x="0" y="2.26041667" width="180.172414" height="150"></rect>
                        <ellipse id="Shadow" fill="#DEEEFF" fill-rule="nonzero" cx="71.8187261" cy="141.322917" rx="51.0488506" ry="2.34375"></ellipse>
                        <g id="Parts/Objects/Cloud" transform="translate(6.005747, 9.031250)" fill="#DEEEFF" fill-rule="nonzero">
                            <path d="M46.4028358,8.23120915 L52.9935687,8.23120915 C53.8543787,8.23120915 54.5522031,8.93990874 54.5522031,9.81413399 L54.5522031,22.4775327 C54.5522031,23.3517579 53.8543787,24.0604575 52.9935687,24.0604575 L46.4028358,24.0604575 L46.4028358,30.3921569 C46.4028358,31.2663821 45.7050114,31.9750817 44.8442014,31.9750817 L32.3751264,31.9750817 C31.5143164,31.9750817 30.8164921,31.2663821 30.8164921,30.3921569 L30.8164921,24.0604575 L27.4566554,24.0604575 L27.4566554,27.0960125 C27.4566554,27.9702378 26.758831,28.6789374 25.898021,28.6789374 L13.428946,28.6789374 C12.568136,28.6789374 11.8703116,27.9702378 11.8703116,27.0960125 L11.8703116,24.0604575 L1.55863437,24.0604575 C0.697824378,24.0604575 -2.6579432e-14,23.3517579 -2.6579432e-14,22.4775327 L-2.6579432e-14,9.81413399 C-2.6579432e-14,8.93990874 0.697824378,8.23120915 1.55863437,8.23120915 L14.0277094,8.23120915 C14.8885194,8.23120915 15.5863437,8.93990874 15.5863437,9.81413399 L15.5863437,12.849689 L23.3795156,12.849689 L23.3795156,9.81413399 C23.3795156,8.93990874 24.07734,8.23120915 24.93815,8.23120915 L30.8164921,8.23120915 L30.8164921,1.8995098 C30.8164921,1.02528456 31.5143164,0.316584967 32.3751264,0.316584967 L44.8442014,0.316584967 C45.7050114,0.316584967 46.4028358,1.02528456 46.4028358,1.8995098 L46.4028358,8.23120915 Z" id="Cloud"></path>
                        </g>
                        <path d="M115.026088,23.2666829 L115.026088,12.2437337 L104.433921,12.2437337 L104.433921,23.2666829 L115.026088,23.2666829 Z M115.026088,46.2708333 L115.026088,34.8125 L104.433921,34.8125 L104.433921,46.2708333 L115.026088,46.2708333 Z M93.5895594,23.2666829 L93.5895594,12.2437337 L82.579023,12.2437337 L82.579023,23.2666829 L93.5895594,23.2666829 Z M93.5895594,46.2708333 L93.5895594,34.8125 L82.579023,34.8125 L82.579023,46.2708333 L93.5895594,46.2708333 Z M93.5895594,68.6666667 L93.5895594,57.2083333 L82.579023,57.2083333 L82.579023,68.6666667 L93.5895594,68.6666667 Z M93.5895594,91.2354329 L93.5895594,80.2124837 L82.579023,80.2124837 L82.579023,91.2354329 L93.5895594,91.2354329 Z M125.99557,23.4396159 L180.172414,23.4396159 L180.172414,102.520833 L71.8187261,102.520833 L71.8187261,0.958333333 L125.99557,0.958333333 L125.99557,23.4396159 Z" id="Building" fill="#DEEEFF" fill-rule="nonzero" transform="translate(125.995570, 51.739583) scale(-1, 1) translate(-125.995570, -51.739583) "></path>
                        <g id="Group" transform="translate(54.130629, 22.309916)" fill-rule="nonzero">
                            <path d="M21.6113407,53.7285476 C23.1036169,52.0364767 24.4998193,50.6885435 25.6182432,49.1250714 C27.0137495,47.1750783 28.5836505,46.6856782 30.7080642,47.6659274 C31.3708339,47.9716666 32.1707524,48.0386829 32.9125393,48.0633159 C39.9488983,48.2944316 47.3229078,42.5255963 49.0303056,35.4186085 C52.0451421,22.8662749 40.8483715,12.7015328 30.6673372,14.768895 C21.3384355,16.6631016 14.8781711,27.246605 18.1596471,36.2945296 C18.338567,36.78719 18.1857541,37.6652846 17.8540211,38.0612241 C16.0000759,40.2742109 14.0430951,42.3933749 12.1247527,44.5411567 C11.5082794,42.916102 10.8556043,41.4185595 10.3707103,39.8641436 C9.76189504,37.9112525 8.59090902,37.0639492 6.60782122,37.1921858 C4.93801743,37.3001363 3.54668831,36.6553309 3.43460226,34.6861385 C3.3016306,32.3568694 3.24628375,30.0018805 3.42833658,27.6813053 C3.55156162,26.107328 4.63970143,25.3339237 6.2583355,25.4686808 C8.20905062,25.6313311 9.61151872,24.8412633 10.2321692,22.7869421 C10.4556451,22.0454159 10.7334236,21.3017161 11.1083201,20.6330021 C12.2612053,18.5772319 11.7272301,16.9735501 10.1514115,15.4137005 C8.77400612,14.0498283 8.87077607,12.7862994 10.2238149,11.3608446 C11.5211588,9.99443665 12.845654,8.65628421 14.1579659,7.30545301 C15.9600452,5.45073171 17.074292,5.38552666 18.8161511,7.32392777 C20.1601395,8.81965907 21.5706138,8.82400608 23.1850707,8.04045878 C23.7068627,7.78724585 24.2286546,7.51121116 24.7786421,7.34819854 C27.0248885,6.68165807 28.1485338,5.28337209 27.9765757,2.73349255 C27.8728438,1.19429122 28.4781782,0.0561009166 30.2813017,0.090876941 C32.0934757,0.126015216 33.9080863,-0.00729287794 35.7213046,6.66133815e-14 C38.5701005,0.0122686358 39.2067633,0.63026757 39.1733463,3.56992839 C39.1545493,5.24497356 39.8382046,6.31542307 41.2406727,6.97399403 C41.9748016,7.31885627 42.7677582,7.54924743 43.4608121,7.96511072 C45.5389294,9.21306285 47.219524,8.82799083 48.8364176,6.98920854 C50.034903,5.62569858 51.1662064,5.74270541 52.4144692,7.02289781 C53.7361796,8.37843826 55.0422259,9.75027998 56.3514049,11.1188614 C58.2687031,13.1235543 58.2989872,14.2371116 56.4220679,16.2562946 C55.5173733,17.2292987 54.9301398,18.270406 55.4011101,19.6534774 C55.7669562,20.7268249 56.2139081,21.7704679 56.5745328,22.8452644 C57.2258154,24.7862013 58.4103771,25.7077659 60.4846653,25.6193769 C62.6383189,25.5273653 63.3306766,26.2359268 63.4894071,28.4539851 C63.6178536,30.2525576 63.6161131,32.0728652 63.518647,33.8743357 C63.3592202,36.8197925 62.8520482,37.3062946 60.0276188,37.2664471 C58.3595555,37.2429008 57.298915,37.9764576 56.6935807,39.5580422 C56.3747272,40.3912178 56.0621394,41.2417814 55.6221494,42.0072161 C54.5005926,43.959745 55.069029,45.5051046 56.4902942,46.9838101 C57.806087,48.3527539 57.7758029,49.8495719 56.4805476,51.2297454 C55.1080155,52.6917874 53.7212116,54.1397017 52.3103893,55.5611717 C50.9771917,56.9047579 49.4560238,56.9645292 48.2401337,55.5361764 C46.7951982,53.8393962 45.2820365,53.3887569 43.3629978,54.585994 C42.8272822,54.920351 42.1909675,55.0768431 41.6065188,55.3296938 C39.3574877,56.3026979 38.7591152,57.1706496 38.8430057,59.7317589 C38.896264,61.3593492 38.2153934,62.2823629 36.7178958,62.4037167 C34.8180023,62.5573108 32.9014004,62.6710574 31.0011588,62.5830306 C28.317011,62.459141 27.5282314,61.5694544 27.6162991,58.7511474 C27.6702535,57.0177799 26.9389094,56.0483983 25.5012839,55.4419913 C24.3306459,54.9482442 23.1735837,54.4186344 21.6113407,53.7285476 Z" id="WrenchGear" fill="#A70A0E"></path>
                            <path d="M7.30996031,67.0916697 L5.56949357,67.0916697 C2.93686358,66.1418496 0.946813907,64.4791209 3.55611666e-15,61.6579159 L3.55611666e-15,60.9334154 C0.374548443,60.4777046 0.733432684,60.0075037 1.12538579,59.5688187 C8.09212606,51.7721065 15.0801,43.9964047 22.0228219,36.1765085 C24.2363475,33.6824155 25.297336,30.7811532 24.8549093,27.2727595 C24.5315306,24.7054919 25.6158414,22.6526197 27.6288652,21.0467644 C30.6638911,18.6254837 34.1013129,18.8500788 37.5627532,19.2311661 C38.1590371,19.2967334 38.7041513,19.863655 39.2729358,20.1990988 C38.859749,20.7345046 38.528016,21.3825704 38.0173631,21.7835814 C36.4572087,23.0087117 34.7477223,24.0404005 33.2676294,25.3564556 C32.7103319,25.852014 32.1718315,27.1180786 32.4040098,27.6900718 C33.154499,29.5368236 34.1054901,31.3618404 35.3199877,32.9046642 C35.8059261,33.5223009 37.3062084,33.7805853 38.1235316,33.5009281 C39.6175482,32.989793 40.9232464,31.9077515 42.3556505,31.1622405 C43.051141,30.8003525 43.8538443,30.6616106 44.6561994,30.4065864 C45.4174796,33.5262856 43.3216095,35.0875842 42.2038818,36.9912093 C40.612399,39.7022902 38.4093162,41.2961913 35.0265451,41.0147229 C32.1032571,40.7712907 29.5252778,42.1242954 27.4885836,44.3698848 C22.4158192,49.9626664 17.3531496,55.5655911 12.3176312,61.1942356 C10.6004867,63.1137997 8.97663126,65.1232018 7.30996031,67.0916697 Z" id="Wrench" fill="#B2D6FF"></path>
                            <path d="M91.9905545,68.686876 C92.5306842,69.9489165 92.1427243,70.937941 90.9407835,71.5126495 C90.8169496,71.5718354 90.6930586,71.6308964 90.5691074,71.6898226 C90.2879881,72.0483011 89.8161546,72.3391668 89.1291573,72.621358 C87.8668024,73.1401281 86.5483694,73.5267261 85.232314,73.8824016 C84.194933,74.1625491 83.5295432,73.7044349 83.2021579,72.5935002 C82.6870555,70.8453585 82.0896144,70.4044482 80.3551005,70.2917097 C80.3003274,70.2881497 80.2453552,70.2857348 80.1902587,70.2840669 C80.1351398,70.2837327 80.0801201,70.2841497 80.025261,70.2857182 C78.288023,70.3353925 77.6761596,70.7543358 77.1027461,72.4827047 C76.7383043,73.5810723 76.0579566,74.0147412 75.0306026,73.6970879 C73.7272766,73.2938315 72.4226115,72.8595849 71.1784229,72.2952837 C70.5013076,71.9883133 70.0395159,71.6804884 69.7705897,71.3120184 C69.6486901,71.2486263 69.5268552,71.1851017 69.4050816,71.1214543 C68.2231462,70.5034429 67.8685902,69.5009306 68.4507141,68.2592757 C68.9691771,67.1533805 69.0863404,66.1570852 68.442964,65.2550596 C68.0408609,64.8504539 67.6095863,64.4112461 67.0991894,63.8983242 C67.1124875,63.891438 67.1257724,63.88457 67.1390441,63.8777197 C66.9752414,63.6868484 66.8156288,63.4916749 66.6559614,63.2986002 C65.8945239,62.377918 65.0152122,62.1394307 63.8951036,62.5585697 C61.9984875,63.2682574 61.5477235,63.0626456 60.7826709,61.1140244 C60.3147848,59.9222185 59.9072754,58.6945625 59.5924489,57.4500975 C59.2044146,55.9153038 59.5133486,55.2698932 60.9868575,54.8113245 C62.3225626,54.3954792 62.9268183,53.5665812 62.9983732,52.2474867 C63.0001777,52.1535473 63.0026021,52.0597244 63.0057403,51.9659826 C63.0071093,51.7383409 63.0134823,51.5107104 63.0220741,51.2830782 C62.9806867,50.0513538 62.3962476,49.2920101 61.1680034,48.8903612 C60.0291634,48.517928 59.2607867,47.7181609 59.669977,46.3765858 C60.1537299,44.7895931 60.6955111,43.2061239 61.3869767,41.7087522 C61.5378699,41.3818515 61.7349687,41.1367913 61.9677439,40.9721066 C62.0715367,40.7526027 62.1756818,40.5332777 62.2802749,40.31418 C62.8366508,39.1487269 63.5737699,38.7962958 64.6866994,39.4264593 C65.8442153,40.0815521 66.8343771,40.14448 67.7420613,39.5228092 C67.8987613,39.3575659 68.0627588,39.2008995 68.2347391,39.05731 C68.3433321,38.9666698 68.4429413,38.8749549 68.5338957,38.7821028 C68.5937621,38.710691 68.656387,38.6418391 68.7210638,38.5748815 C69.5037338,37.6305369 69.4474393,36.5682138 68.8797551,35.3259111 C68.2973369,34.0508535 68.6722634,33.2349233 69.923822,32.6454279 C70.0844235,32.5698105 70.2452246,32.4946596 70.4061866,32.4198849 C70.6942941,32.0808669 71.2029024,31.8210187 71.9747712,31.5408059 C72.440371,31.3717788 72.9106768,31.2165134 73.381722,31.0635049 C73.4348095,31.0393189 73.4878887,31.0151134 73.5409582,30.9908853 C74.0327364,30.766413 74.4453445,30.6309094 74.8003474,30.5972734 C75.0901549,30.4982462 75.3787199,30.3956581 75.6651036,30.2867863 C76.8738243,29.8274203 77.5362858,30.4489651 77.8098885,31.5124697 C78.1855274,32.9728626 78.9851006,33.6842583 80.1955113,33.8317889 C80.3327351,33.8295806 80.4694999,33.8329578 80.6052618,33.8455732 C80.6714761,33.851705 80.7367868,33.856586 80.8011931,33.8601956 C80.8656812,33.8589274 80.9311158,33.8564213 80.9974955,33.8526981 C81.1335977,33.8450211 81.2703925,33.8466131 81.4074586,33.8538039 C82.6220795,33.7503239 83.4450227,33.0684012 83.869408,31.6225406 C84.1785092,30.5696208 84.8614111,29.9725145 86.0539904,30.4755 C86.3365485,30.5947066 86.6214974,30.7077125 86.9078074,30.8172049 C87.2614661,30.8637137 87.6692786,31.0141202 88.1532294,31.2563167 C88.2054541,31.2824574 88.2576892,31.3085759 88.3099332,31.3346753 C88.7755602,31.5046984 89.2403726,31.6769502 89.7000203,31.8627843 C90.4620219,32.1708598 90.9616062,32.4490218 91.238169,32.798297 C91.3965253,32.8788722 91.5547083,32.9598173 91.712676,33.0412216 C92.9437031,33.6758131 93.2910385,34.5048631 92.6662153,35.7579912 C92.0572155,36.9789195 91.9653297,38.0385509 92.7158537,39.0107459 C92.7782456,39.0800117 92.8385234,39.1510961 92.8959585,39.2246387 C92.9837436,39.3207376 93.0802165,39.4160144 93.1857036,39.5105432 C93.3527638,39.6602914 93.5114075,39.8228186 93.6624705,39.9936524 C94.5487536,40.6479106 95.5404226,40.6209825 96.7192023,40.0083284 C97.8525868,39.4189692 98.5774378,39.7979569 99.0943906,40.982907 C99.1915724,41.2056699 99.2882989,41.4286437 99.3846673,41.6517836 C99.6117778,41.824822 99.8005383,42.0768914 99.9403768,42.4090732 C100.581206,43.930646 101.069554,45.5328274 101.499792,47.1364227 C101.863742,48.4920419 101.069013,49.2634152 99.9183771,49.5942602 C98.6774116,49.951056 98.0678634,50.6887109 97.9851946,51.9181819 C97.9861474,52.1459875 97.9848828,52.3737108 97.9786168,52.6012635 C97.9786095,52.6950622 97.977886,52.7889159 97.9765391,52.8828637 C98.0038137,54.2037535 98.5799038,55.0540924 99.9008495,55.5181956 C101.358082,56.0300011 101.645184,56.6862387 101.205916,58.2060044 C100.849547,59.4382772 100.401116,60.6503851 99.8935468,61.8244719 C99.0636121,63.7441202 98.6062275,63.9332355 96.7345665,63.1550972 C95.6291963,62.6955325 94.7424224,62.9019389 93.9505731,63.7944058 C93.7845282,63.9815638 93.6184676,64.1708215 93.4483636,64.3556275 C93.4613975,64.3629556 93.474444,64.3703019 93.4875031,64.3776669 C92.9602159,64.8717392 92.514475,65.2950161 92.0990481,65.6847715 C91.4258136,66.5628808 91.5094942,67.5628245 91.9905545,68.686876 Z" id="SmallGear" fill="#A70A0E"></path>
                            <path d="M58.6353233,73.7423562 L57.803878,73.7423562 C57.1255936,73.7423562 56.55671,73.1332586 56.55671,72.410311 C56.55671,72.045991 56.7044009,71.715826 56.9669626,71.4710484 L57.503026,70.9245684 C58.0336194,70.3780883 58.0336194,69.4843657 57.503026,68.9378856 L56.2832082,67.679843 C56.0425267,67.429373 55.6869744,67.281368 55.3259521,67.281368 C54.9649298,67.281368 54.6148475,67.429373 54.3686959,67.679843 L53.8545126,68.2149381 C53.608361,68.4995631 53.2801589,68.6532606 52.9246067,68.6532606 C52.2244422,68.6532606 51.6391484,68.0612405 51.6391484,67.361063 L51.6391484,66.4901104 C51.6391484,65.7216228 51.0429146,65.0612927 50.2989898,65.0612927 L48.6360991,65.0612927 C47.8921744,65.0612927 47.3014106,65.7159303 47.3014106,66.4901104 L47.3014106,67.3553705 C47.3014106,68.055548 46.7161168,68.6475681 46.0159523,68.6475681 C45.6658701,68.6475681 45.343138,68.4938706 45.1079265,68.2263231 L44.5773331,67.679843 C44.3366516,67.4236805 43.9810993,67.281368 43.620077,67.281368 C43.2590546,67.281368 42.9089724,67.429373 42.6628208,67.679843 L41.4320629,68.9321931 C40.9069396,69.4786732 40.9069396,70.3723958 41.4320629,70.9131834 L41.9462462,71.4482784 C42.219748,71.7044409 42.372909,72.045991 42.372909,72.410311 C42.372909,73.1389511 41.8040253,73.7423562 41.125741,73.7423562 L40.2942956,73.7423562 C39.5449008,73.7423562 38.9158468,74.3514537 38.9158468,75.1256338 L38.9158468,75.9908939 L38.9158468,76.856154 C38.9158468,77.6246416 39.5449008,78.2394317 40.2942956,78.2394317 L41.125741,78.2394317 C41.8040253,78.2394317 42.372909,78.8485293 42.372909,79.5714768 C42.372909,79.9357969 42.219748,80.2773469 41.9462462,80.5335094 L41.4320629,81.062912 C40.9069396,81.6093921 40.9069396,82.5031147 41.4320629,83.0439022 L42.6518807,84.3076374 C42.8925623,84.5637999 43.2481146,84.7061124 43.6091369,84.7061124 C43.9701592,84.7061124 44.3202415,84.5581074 44.566393,84.3076374 L45.0969864,83.7611573 C45.3267279,83.4936098 45.65493,83.3399123 46.0050123,83.3399123 C46.7051768,83.3399123 47.2904705,83.9319323 47.2904705,84.6321099 L47.2904705,85.49737 C47.2904705,86.2658576 47.8812343,86.9261877 48.6306291,86.9261877 L50.2935198,86.9261877 C51.0374446,86.9261877 51.6282083,86.2715501 51.6282083,85.49737 L51.6282083,84.6321099 C51.6282083,83.9319323 52.2135021,83.3399123 52.9136666,83.3399123 C53.2637488,83.3399123 53.5919509,83.4993023 53.8435726,83.7782348 L54.3577559,84.3133299 C54.6039074,84.5637999 54.9539897,84.7118049 55.315012,84.7118049 C55.6760343,84.7118049 56.0261166,84.5637999 56.2722681,84.3133299 L57.492086,83.0495947 C58.0172093,82.5031147 58.0172093,81.6093921 57.492086,81.062912 L56.9560225,80.5164319 C56.6934608,80.2716544 56.5457699,79.9357969 56.5457699,79.5771693 C56.5457699,78.8485293 57.1146535,78.2451242 57.7929379,78.2451242 L58.6243832,78.2451242 C59.368308,78.2451242 59.8990675,77.6360266 59.8990675,76.8618465 L59.8990675,75.9908939 L59.8990675,75.1256338 C59.9098415,74.3514537 59.3792481,73.7423562 58.6353233,73.7423562 Z M54.5017553,75.9908939 L54.5017553,75.9908939 C54.5017553,78.8820039 52.2527977,81.2355379 49.4620744,81.2355379 C46.6713512,81.2355379 44.4223936,78.8820039 44.4223936,75.9908939 L44.4223936,75.9908939 L44.4223936,75.9908939 C44.4223936,73.0997839 46.6713512,70.7462499 49.4620744,70.7462499 C52.2527977,70.7462499 54.5017553,73.0997839 54.5017553,75.9908939 L54.5017553,75.9908939 Z" id="GearCopy" fill="#A70A0E" transform="translate(49.407457, 75.993740) rotate(20.000000) translate(-49.407457, -75.993740) "></path>
                            <g id="Parts/Icon/Locked/NonBrandedLock" transform="translate(68.987187, 38.544251)" fill="#FFFFFF">
                                <path d="M11.5139378,0.985836565 C14.6353245,0.985836565 16.7765197,3.58524736 16.7765197,6.97862884 L16.7758559,7.99183656 L18.6191747,7.99247598 C19.7237442,7.99247598 20.6191747,8.88790648 20.6191747,9.99247598 L20.6191747,20.9724968 C20.6191747,22.0770663 19.7237442,22.9724968 18.6191747,22.9724968 L4.40285595,22.9724968 C3.29828645,22.9724968 2.40285595,22.0770663 2.40285595,20.9724968 L2.40285595,9.99247598 C2.40285595,8.88790648 3.29828645,7.99247598 4.40285595,7.99247598 L6.22385595,7.99183656 L6.2243751,6.97862884 C6.2243751,3.59083604 8.38961476,0.985836565 11.5139378,0.985836565 Z M11.5139378,2.98236434 C9.51598477,2.98236434 8.14287765,4.63434929 8.14287765,6.97862884 L8.14285595,7.99183656 L14.8578559,7.99183656 L14.8580172,6.97862884 C14.8580172,4.6254921 13.5045345,2.98236434 11.5139378,2.98236434 Z" id="LockLocked"></path>
                            </g>
                            <path d="M31.6056693,108.725943 C33.5602286,108.725943 35.1447119,110.374867 35.1447119,112.408918 C35.1447119,114.442969 33.5602286,116.091893 31.6056693,116.091893 C29.6511101,116.091893 28.0666268,114.442969 28.0666268,112.408918 C28.0666268,110.374867 29.6511101,108.725943 31.6056693,108.725943 Z M50.7086855,108.725943 C52.6632448,108.725943 54.2477281,110.374867 54.2477281,112.408918 C54.2477281,114.442969 52.6632448,116.091893 50.7086855,116.091893 C48.7541263,116.091893 47.169643,114.442969 47.169643,112.408918 C47.169643,110.374867 48.7541263,108.725943 50.7086855,108.725943 Z M69.7310394,108.725943 C71.6855986,108.725943 73.2700819,110.374867 73.2700819,112.408918 C73.2700819,114.442969 71.6855986,116.091893 69.7310394,116.091893 C67.7764801,116.091893 66.1919968,114.442969 66.1919968,112.408918 C66.1919968,110.374867 67.7764801,108.725943 69.7310394,108.725943 Z M88.7533932,108.725943 C90.7079524,108.725943 92.2924358,110.374867 92.2924358,112.408918 C92.2924358,114.442969 90.7079524,116.091893 88.7533932,116.091893 C86.7988339,116.091893 85.2143506,114.442969 85.2143506,112.408918 C85.2143506,110.374867 86.7988339,108.725943 88.7533932,108.725943 Z M31.6056693,94.7942506 C33.5602286,94.7942506 35.1447119,96.4431746 35.1447119,98.4772255 C35.1447119,100.511276 33.5602286,102.1602 31.6056693,102.1602 C29.6511101,102.1602 28.0666268,100.511276 28.0666268,98.4772255 C28.0666268,96.4431746 29.6511101,94.7942506 31.6056693,94.7942506 Z M50.7086855,94.7942506 C52.6632448,94.7942506 54.2477281,96.4431746 54.2477281,98.4772255 C54.2477281,100.511276 52.6632448,102.1602 50.7086855,102.1602 C48.7541263,102.1602 47.169643,100.511276 47.169643,98.4772255 C47.169643,96.4431746 48.7541263,94.7942506 50.7086855,94.7942506 Z M69.7310394,94.7942506 C71.6855986,94.7942506 73.2700819,96.4431746 73.2700819,98.4772255 C73.2700819,100.511276 71.6855986,102.1602 69.7310394,102.1602 C67.7764801,102.1602 66.1919968,100.511276 66.1919968,98.4772255 C66.1919968,96.4431746 67.7764801,94.7942506 69.7310394,94.7942506 Z M88.7533932,94.7942506 C90.7079524,94.7942506 92.2924358,96.4431746 92.2924358,98.4772255 C92.2924358,100.511276 90.7079524,102.1602 88.7533932,102.1602 C86.7988339,102.1602 85.2143506,100.511276 85.2143506,98.4772255 C85.2143506,96.4431746 86.7988339,94.7942506 88.7533932,94.7942506 Z M31.6056693,129.893976 C29.6511101,129.893976 28.0666268,128.245052 28.0666268,126.211001 C28.0666268,124.176951 29.6511101,122.528026 31.6056693,122.528026 C33.5602286,122.528026 35.1447119,124.176951 35.1447119,126.211001 C35.1447119,128.245052 33.5602286,129.893976 31.6056693,129.893976 Z M50.7086855,129.893976 C48.7541263,129.893976 47.169643,128.245052 47.169643,126.211001 C47.169643,124.176951 48.7541263,122.528026 50.7086855,122.528026 C52.6632448,122.528026 54.2477281,124.176951 54.2477281,126.211001 C54.2477281,128.245052 52.6632448,129.893976 50.7086855,129.893976 Z M69.7310394,129.893976 C67.7764801,129.893976 66.1919968,128.245052 66.1919968,126.211001 C66.1919968,124.176951 67.7764801,122.528026 69.7310394,122.528026 C71.6855986,122.528026 73.2700819,124.176951 73.2700819,126.211001 C73.2700819,128.245052 71.6855986,129.893976 69.7310394,129.893976 Z M88.7533932,129.893976 C86.7988339,129.893976 85.2143506,128.245052 85.2143506,126.211001 C85.2143506,124.176951 86.7988339,122.528026 88.7533932,122.528026 C90.7079524,122.528026 92.2924358,124.176951 92.2924358,126.211001 C92.2924358,128.245052 90.7079524,129.893976 88.7533932,129.893976 Z" id="Dots" fill="#F3F5F7"></path>
                        </g>
                        <g id=".People/Side/..Standing" transform="translate(16.254212, 57.854167)">
                            <g id=".People/Side/Parts/Legs/Standing/Sprint" transform="translate(0.000000, 35.315515)">
                                <path d="M38.349999,2.5214956 C35.2820571,5.19389151 35.9978873,28.1109174 35.790958,28.4034594 C35.6989894,28.5334781 30.8946287,29.7146316 21.3778759,31.94692 L21.7535056,33.71468 C32.8513634,32.9235195 38.7316272,32.0845219 39.3942969,31.1976873 C40.3430501,29.927994 41.6185518,22.9020108 43.2208019,10.1197376 L38.349999,2.5214956 Z" id="Leg" fill="#D4A181" fill-rule="evenodd" transform="translate(32.299339, 18.118088) rotate(-55.000000) translate(-32.299339, -18.118088) "></path>
                                <path d="M21.2162259,28.9732931 L22.873733,33.5282326 C33.2416457,32.0620059 37.5761483,31.4533057 39.6918636,29.3858832 C41.1023404,28.0076016 42.6711999,20.9674047 44.3984421,8.26529274 L38.3234065,-0.410757168 C30.4253907,5.76314741 33.9752019,25.0583314 33.7677555,25.5136324 C33.5603092,25.9689334 29.4380411,26.8835586 21.2162259,28.9732931 Z" id="Pant" fill="#C6CBD4" fill-rule="nonzero" transform="translate(32.807334, 16.558738) rotate(-55.000000) translate(-32.807334, -16.558738) "></path>
                                <g id=".People/Side/Parts/Shoe/FlatSneaker" transform="translate(41.626886, 35.368228) rotate(20.000000) translate(-41.626886, -35.368228) translate(36.091973, 31.591167)" fill="#DCE0E5" fill-rule="nonzero">
                                    <path d="M0.181472557,6.06325288 C0.181472557,6.06325288 0.181472557,6.06325288 0.181472557,6.06325288 C0.181472557,6.40380892 0.23598949,6.90076489 0.345023358,7.55412078 C0.724652796,7.55412078 4.13644648,7.55412078 10.5804044,7.55412078 C10.8463857,6.63903484 10.6928459,6.14500939 10.119785,6.07204443 C9.54672407,5.99907946 9.07067265,5.93319794 8.6916307,5.87439986 L4.6922706,4.01895349 C4.20802566,3.79429492 3.63334583,4.00473125 3.40868726,4.48897619 C3.40092884,4.50569923 3.39365044,4.52264081 3.386861,4.53978014 L3.386861,4.53978014 L3.386861,4.53978014 C2.85635649,4.79736756 2.42526649,4.92616127 2.09359102,4.92616127 C1.98553828,4.92616127 1.86097802,4.9079517 1.71991021,4.87153255 L1.71990518,4.87155207 C1.061747,4.70163691 0.390460915,5.09743608 0.22054575,5.75559426 C0.194601154,5.8560894 0.181472557,5.95946273 0.181472557,6.06325288 Z" id="Shoe"></path>
                                </g>
                                <polygon id="Leg" fill="#D4A181" fill-rule="evenodd" points="24.6802677 3.06891628 15.2897956 24.8665486 6.06042314 43.2946094 8.23793082 43.2946094 32.0614258 3.06891628"></polygon>
                                <g id=".People/Side/Parts/Shoe/FlatSneaker" transform="translate(5.444177, 37.581751)" fill="#DCE0E5" fill-rule="nonzero">
                                    <path d="M0.181472557,6.06325288 C0.181472557,6.06325288 0.181472557,6.06325288 0.181472557,6.06325288 C0.181472557,6.40380892 0.23598949,6.90076489 0.345023358,7.55412078 C0.724652796,7.55412078 4.13644648,7.55412078 10.5804044,7.55412078 C10.8463857,6.63903484 10.6928459,6.14500939 10.119785,6.07204443 C9.54672407,5.99907946 9.07067265,5.93319794 8.6916307,5.87439986 L4.6922706,4.01895349 C4.20802566,3.79429492 3.63334583,4.00473125 3.40868726,4.48897619 C3.40092884,4.50569923 3.39365044,4.52264081 3.386861,4.53978014 L3.386861,4.53978014 L3.386861,4.53978014 C2.85635649,4.79736756 2.42526649,4.92616127 2.09359102,4.92616127 C1.98553828,4.92616127 1.86097802,4.9079517 1.71991021,4.87153255 L1.71990518,4.87155207 C1.061747,4.70163691 0.390460915,5.09743608 0.22054575,5.75559426 C0.194601154,5.8560894 0.181472557,5.95946273 0.181472557,6.06325288 Z" id="Shoe"></path>
                                </g>
                                <path d="M6.14064349,39.9985443 L10.9790897,40.8875452 C14.7201627,35.498775 31.1299416,12.6340555 32.8465328,2.34798863 L22.0750609,2.34798863 C20.7323561,6.16801736 18.6869742,12.4504636 15.9389153,21.1953274 C10.8185349,30.668628 7.55244425,36.936367 6.14064349,39.9985443 Z" id="Pant" fill="#DCE0E5" fill-rule="nonzero"></path>
                            </g>
                            <g id=".People/Side/Parts/Head/Rad" transform="translate(16.151058, 1.699677)" fill-rule="evenodd">
                                <path d="M16.7214877,7.57941441 C17.7730869,9.61923888 17.6481295,14.7934228 16.2890314,15.1579963 C15.7469365,15.3034114 14.5920135,14.9471208 13.4166662,14.2097538 L14.1548594,19.640714 L9.79951806,19.640714 L11.2987299,12.3678077 C10.4626109,11.3463855 9.89672726,10.0946455 9.99129396,8.69204594 C10.2637848,4.65050172 15.6698886,5.53958995 16.7214877,7.57941441 Z" id="Head" fill="#D4A181"></path>
                                <path d="M17.3136829,7.34670371 C17.4543564,7.20162989 17.5310905,6.99456144 17.5974686,6.79794131 C17.6664023,6.59369165 17.7333817,6.3873373 17.7791482,6.17474402 C17.8705977,5.74997088 17.8714662,5.26147425 17.5802811,4.93163802 C17.3467551,4.66714138 16.9963574,4.54850783 16.6729687,4.52272528 C16.4575154,4.50553065 16.2362327,4.53693199 16.0296989,4.60758971 C15.8247852,4.67768367 15.64815,4.81738299 15.4495,4.90408903 C15.4419168,4.44633602 15.3665691,3.96736691 15.1434157,3.57651324 C14.9286806,3.20044882 14.5863172,2.98941527 14.1964167,2.9335844 C13.7962271,2.87628776 13.4010484,2.97374279 13.0427836,3.17536157 C12.953088,3.22585553 12.8642275,3.27875486 12.779192,3.338626 C12.7079867,3.38876291 12.6339586,3.44914143 12.5504097,3.46953069 C12.4572732,3.49228774 12.4111058,3.43630653 12.3505738,3.36559244 C12.2796023,3.28268237 12.1996445,3.20965687 12.1150266,3.14491862 C11.7408772,2.85871729 11.2499731,2.74104212 10.8165109,2.9125938 C10.6167919,2.99163272 10.422585,3.12586359 10.2870894,3.31083271 C10.1663093,3.47571324 10.0801547,3.73725954 9.91345778,3.8521347 C9.84272015,3.9008998 9.79276118,3.83629309 9.72835402,3.78854276 C9.63160966,3.71679511 9.53934174,3.63762464 9.44142816,3.56783136 C9.30389483,3.46977498 9.15498669,3.39643002 8.99552219,3.35803808 C8.76207966,3.30183137 8.43947598,3.31500452 8.37273039,3.63318974 C8.34767574,3.75270652 8.36688431,3.88052933 8.37498531,4.00094812 C8.38609287,4.16629845 8.39768482,4.3315924 8.41148158,4.49669844 C8.42195443,4.62205951 8.43519999,4.74313601 8.45793291,4.86624205 C8.47005936,4.93186352 8.5080088,5.05419909 8.48096648,5.11991452 C8.44717611,5.20205412 8.29121926,5.15535613 8.22459059,5.15821251 C8.09298687,5.16386888 7.96083193,5.18788499 7.83914985,5.24640311 C7.74484414,5.29176687 7.64569454,5.35847827 7.60589105,5.47096686 C7.58142101,5.54006484 7.58786841,5.61104202 7.59942695,5.68213195 C7.61329052,5.76744739 7.59743928,5.81269839 7.58708336,5.89878429 C7.41033115,5.80820712 6.79782846,5.60696417 6.72076035,5.93661248 C6.69510439,6.04637624 6.75353184,6.17040308 6.79811241,6.2629722 C6.87629962,6.42533461 6.97880655,6.57373461 7.0836018,6.71525675 C7.30219528,7.01049701 7.56316452,7.26514666 7.84394364,7.48292652 C7.51497607,7.63512249 7.42910544,8.08404328 7.7139267,8.35150904 C7.83968435,8.46959763 8.00876983,8.49588756 8.16739918,8.4883332 C8.22545915,8.48557078 8.30915839,8.46234394 8.35484137,8.47286743 C8.37942833,8.4785238 8.40575242,8.50020971 8.43981004,8.50263387 C8.6636817,8.51858823 8.91639961,8.46245669 9.13524363,8.41076005 C9.52519421,8.31864193 9.89436614,8.12638153 10.1958404,7.83356543 C10.2731758,7.75845403 10.3370651,7.71521376 10.4411588,7.71632249 C10.5323745,7.71728087 10.6218697,7.74330772 10.7130018,7.74571309 C10.9541278,7.75212114 11.1715353,7.62944732 11.3954404,7.54779632 C11.4091536,7.8625802 11.4952915,8.2092728 11.6190281,8.49246742 C11.7199315,8.72340164 11.9306411,8.75696406 12.1376927,8.77722178 C12.7998036,8.84205399 13.464253,8.769705 14.127199,8.77066339 C13.4854492,8.92161909 12.8223027,8.98383922 12.1862487,9.16147948 C11.8987382,9.24175867 12.1182837,9.44341504 12.2412186,9.58320833 C12.4436434,9.81340966 12.5941551,10.0986338 12.6985495,10.399117 C13.0124842,9.97325395 13.5673779,9.69265262 14.0589836,9.82348214 C14.6021684,9.968011 14.9846527,10.7324486 14.6373117,11.282019 C14.4356552,11.6010499 14.0714942,11.7242123 13.7684833,11.8612807 C14.0048655,12.1170391 14.0620402,12.494776 14.2043173,12.8129612 C14.274487,12.969874 14.3729852,13.1472887 14.5299108,13.2019733 C14.5879708,13.2222122 14.6560526,13.2239411 14.7018525,13.2731948 C14.7585929,13.3341746 14.7721057,13.4023518 14.8445638,13.4547626 C15.1336945,13.6639545 15.5853296,13.647831 15.8416053,13.3748404 C16.0733608,13.1279518 16.0130626,12.7372673 15.8195071,12.4869586 C16.1276125,12.3533102 16.6889368,12.1814203 16.5664864,11.6818928 C17.2341093,11.6357586 18.8550784,10.5089559 17.9590239,9.68556805 C18.4507799,9.39634122 18.9025653,8.68950097 18.586693,8.06641643 C18.3434625,7.58662048 17.7777953,7.372148 17.3136829,7.34670371" id="Hair" fill="#191847" transform="translate(12.703079, 8.215106) scale(-1, 1) translate(-12.703079, -8.215106) "></path>
                            </g>
                            <g id=".People/Side/Parts/Body/PointingForward" transform="translate(5.444177, 16.807919)">
                                <path d="M43.2914363,8.76424988 C44.0777195,8.59579257 45.9968121,7.11044625 46.3274813,7.41202768 C46.816685,7.85819797 46.3804809,9.2281993 45.8665288,9.90970159 C44.9059529,11.1834285 44.1106375,11.6190047 42.1448921,12.1893944 C41.1170989,12.4876235 40.0058727,13.0853982 38.8112134,13.9827183 L38.6536546,11.0931961 L41.42048,9.51143247 C41.8087048,7.97411303 42.2727803,7.20063563 42.8127063,7.19100029 C43.2274818,6.9901605 42.5051532,8.93270719 43.2914363,8.76424988 Z M38.5293098,2.17964845 C38.0212737,3.11803492 37.5274494,4.12885417 37.7862738,4.41795074 C38.0450982,4.7070473 38.6905,4.30319214 38.9992736,4.78352854 C39.2051226,5.10375281 38.1025047,5.609617 35.6914197,6.30112111 L31.114521,10.6621962 L28.7884506,8.06406787 L35.0873234,4.47389438 C36.1347874,3.17943921 37.1668312,2.1741134 38.1834548,1.45791696 C38.4941022,1.32295225 39.0373459,1.24126197 38.5293098,2.17964845 Z" id="Skin" fill="#D4A181" fill-rule="evenodd"></path>
                                <path d="M25.9297552,6.59089426 C28.1126574,6.9120743 31.0943655,6.89335636 34.5193217,5.33627804 L35.2893996,8.35502279 C32.8008707,10.2250824 29.5062374,11.563584 26.8889679,11.0702746 C24.8264152,10.6815197 24.1805015,7.90540932 25.9297552,6.59089426 Z" id="Sleeve" fill="#FF8F8E" fill-rule="nonzero" transform="translate(30.103533, 8.254808) rotate(-9.000000) translate(-30.103533, -8.254808) "></path>
                                <path d="M23.8864226,-0.000161823842 L25.8677787,-1.00947029e-13 C25.9431809,0.417536546 26.026504,0.855641381 26.1168789,1.31435811 C27.3906729,3.7499414 28.043795,12.2997158 29.5522723,13.0881886 C30.6513565,13.662674 34.2922328,12.533953 40.4749011,9.70202565 C41.5521977,11.5394681 42.0392559,13.0850861 41.9360756,14.3388795 C37.5354404,16.7310898 31.7860514,19.8471853 29.1561951,20.2560401 C28.987018,21.8206534 28.6640734,23.6865614 28.1891442,25.8521833 C21.6480848,26.2422798 17.4266761,25.7849752 15.5249179,24.4802698 C14.937007,17.3416541 16.697902,16.7864759 16.7010972,12.345075 C16.7045963,7.48126773 18.3419058,2.76942491 18.8036257,1.96119659 C19.1114389,1.42237771 19.6588109,0.768645516 20.4457417,-1.00947029e-13 L20.4134008,0.030965925 C20.4182224,0.0206436655 20.4230589,0.0103216866 20.4279106,-1.14852572e-13 C21.8041428,-0.17583413 22.9569802,-0.175888071 23.8864226,-0.000161823842 Z" id="Clothes" fill="#FFE9E9" fill-rule="nonzero"></path>
                            </g>
                        </g>
                    </g>
                </g>
            </g>
        </g>
    </g>
</svg>