<?xml version="1.0" encoding="UTF-8"?>
<svg width="18px" height="18px" viewBox="0 0 18 18" version="1.1" xmlns="http://www.w3.org/2000/svg" xmlns:xlink="http://www.w3.org/1999/xlink">
    <!-- Generator: Sketch 53.2 (72643) - https://sketchapp.com -->
    <title>Artboard Copy</title>
    <desc>Created with Sketch.</desc>
    <defs>
        <path d="M9.40502816,1.57685964 L3.21242178,1.57685964 C3.1344386,1.57685964 3.06537781,1.64640002 3.0653775,1.73343424 L3.05681969,15.4254456 C3.05681969,15.5115073 3.12588049,15.5810477 3.20386367,15.5810477 L10.949828,15.5810477 L10.4847891,17.1370686 L3.20386367,17.1370686 C2.26247103,17.1370686 1.5007988,16.3668382 1.5007988,15.4254456 L1.50935692,1.73246173 C1.50935692,0.791069086 2.17188847,0 3.11328111,0 L10.0589137,0.0208387446 L15.1937827,5.15570769 L15.1937827,9.34697908 C14.9752696,9.30458331 14.723722,9.28229066 14.439095,9.28229066 C14.149989,9.28291288 13.882878,9.30552182 13.6377618,9.3501175 L13.6377618,5.82743977 L9.40502816,5.82743977 L9.40502816,1.57685964 Z M16.1636411,15.8218302 L16.4558906,17.1727707 C16.5323293,17.3652342 16.5064221,17.5846191 16.3874036,17.7527267 C16.2683851,17.9208342 16.0731888,18.0137466 15.8713917,17.9983455 L12.72971,17.9983455 C12.5279128,18.0137466 12.3327165,17.9208342 12.213698,17.7527267 C12.0946795,17.5846191 12.0687724,17.3652342 12.1452111,17.1727707 L12.5105229,15.8218302 C12.6296288,15.3708046 13.0076083,15.0422651 13.4603336,14.9962554 L15.2138304,14.9962554 C15.6665557,15.0422651 16.0445352,15.3708046 16.1636411,15.8218302 Z M14.337082,14.2457328 C13.5300574,14.2457328 12.8758347,13.5736921 12.8758347,12.7446878 C12.8758347,11.9156835 13.5300574,11.2436427 14.337082,11.2436427 C15.1441066,11.2436427 15.7983293,11.9156835 15.7983293,12.7446878 C15.7983293,13.5736921 15.1441066,14.2457328 14.337082,14.2457328 Z" id="path-1"></path>
    </defs>
    <g id="Artboard-Copy" stroke="none" stroke-width="1" fill="none" fill-rule="evenodd">
        <g id="Virtru-icons/18/Watermarking-18">
            <mask id="mask-2" fill="white">
                <use xlink:href="#path-1"></use>
            </mask>
            <use id="file-admin" fill="#2D323B" fill-rule="nonzero" xlink:href="#path-1"></use>
        </g>
    </g>
</svg>